<svg width="12" height="18" viewBox="0 0 12 18" fill="none" xmlns="http://www.w3.org/2000/svg">
<path d="M11.0149 8.781C11.0149 9.2698 10.8869 9.75086 10.6424 10.1804C9.53658 12.0241 8.42685 13.8604 7.31324 15.6893C7.09329 16.0526 6.7861 16.361 6.41692 16.589C5.69521 17.0221 4.95022 17.1887 4.1703 16.7333C3.53007 16.3557 3.20414 15.5005 3.36711 14.6786C3.50679 13.9456 3.94913 13.3569 4.32163 12.735C5.21795 11.2467 6.11815 9.75838 7.02223 8.2701C7.26577 7.87304 7.61001 7.54076 8.02332 7.30382C8.68682 6.91509 9.38526 6.80402 10.0953 7.17054C10.7938 7.51485 10.9916 8.14792 11.0149 8.781ZM0.000669384 9.10309C-0.0107289 8.63048 0.123658 8.16509 0.387135 7.76474C1.4697 5.95437 2.56391 4.13288 3.65812 2.33361C3.96668 1.82708 4.43524 1.42666 4.99678 1.18963C5.64865 0.911963 6.30052 0.911963 6.89419 1.32291C7.51113 1.74496 7.6741 2.36693 7.63918 3.04443C7.6159 3.61087 7.37145 4.11067 7.06879 4.59936C6.03279 6.28756 5.02006 7.97577 4.00734 9.67508C3.74175 10.1395 3.34169 10.5212 2.85492 10.7746C1.39753 11.5132 0.000669384 10.7247 0.000669384 9.10309Z" fill="#FFEA00"/>
</svg>
