<svg width="236" height="340" viewBox="0 0 236 340" fill="none" xmlns="http://www.w3.org/2000/svg">
<path fill-rule="evenodd" clip-rule="evenodd" d="M105 278C162.99 278 210 230.99 210 173C210 115.01 162.99 68 105 68C47.0101 68 0 115.01 0 173C0 230.99 47.0101 278 105 278ZM136.33 184.679C136.33 187.997 135.793 190.892 134.72 193.366C133.703 195.784 132.036 197.808 129.72 199.438C127.46 201.013 124.551 202.193 120.992 202.981C117.489 203.768 113.224 204.161 108.196 204.161L106.416 204.077C96.4165 204.077 89.1288 202.503 84.5528 199.354C79.9767 196.149 77.6887 191.258 77.6887 184.679C77.6887 182.599 77.9712 180.744 78.5361 179.113C79.1011 177.483 79.8637 176.077 80.8242 174.896C81.841 173.659 82.9992 172.591 84.2985 171.691C85.5979 170.792 86.982 170.061 88.4509 169.499C86.4736 168.205 84.8917 166.631 83.7054 164.776C82.519 162.92 81.9258 160.728 81.9258 158.197C81.9258 155.555 82.3777 153.193 83.2816 151.113C84.1856 148.977 85.5979 147.177 87.5187 145.716C89.496 144.254 92.0382 143.129 95.1454 142.342C98.2526 141.555 102.009 141.161 106.416 141.161C109.523 141.161 112.602 141.33 115.653 141.667C118.704 142.005 121.443 142.764 123.873 143.944C126.302 145.125 128.251 146.84 129.72 149.089C131.245 151.338 132.008 154.374 132.008 158.197C132.008 160.728 131.443 162.92 130.313 164.776C129.183 166.575 127.686 168.121 125.822 169.414C127.234 169.977 128.562 170.707 129.805 171.607C131.104 172.507 132.234 173.575 133.194 174.812C134.155 175.993 134.917 177.398 135.482 179.029C136.047 180.659 136.33 182.543 136.33 184.679ZM90.7389 158.45C90.7389 160.418 91.2756 161.965 92.349 163.089C93.4224 164.214 94.7782 165.057 96.4165 165.619C98.0549 166.125 99.8062 166.462 101.671 166.631C103.591 166.744 105.343 166.8 106.924 166.8H107.857C109.495 166.8 111.218 166.744 113.026 166.631C114.834 166.462 116.5 166.125 118.026 165.619C119.551 165.057 120.794 164.214 121.754 163.089C122.771 161.965 123.28 160.418 123.28 158.45C123.28 156.483 122.941 154.852 122.263 153.559C121.641 152.266 120.681 151.254 119.381 150.523C118.082 149.736 116.472 149.201 114.551 148.92C112.63 148.583 110.399 148.414 107.857 148.414H106.924C104.382 148.414 102.094 148.583 100.06 148.92C98.0831 149.201 96.3883 149.736 94.976 150.523C93.6201 151.254 92.5749 152.266 91.8405 153.559C91.1061 154.852 90.7389 156.483 90.7389 158.45ZM86.5018 185.523C86.5018 188.222 87.208 190.33 88.6203 191.848C90.0892 193.366 91.8688 194.491 93.9591 195.222C96.0493 195.952 98.2526 196.402 100.569 196.571C102.942 196.683 105.032 196.74 106.84 196.74H107.687C109.495 196.74 111.529 196.655 113.789 196.487C116.105 196.318 118.28 195.868 120.314 195.137C122.347 194.406 124.042 193.282 125.398 191.764C126.81 190.246 127.517 188.137 127.517 185.438C127.517 183.189 127.178 181.334 126.5 179.872C125.822 178.41 124.72 177.258 123.195 176.414C121.669 175.515 119.692 174.896 117.263 174.559C114.834 174.165 111.868 173.969 108.365 173.969H107.263C103.648 173.969 100.512 174.137 97.8572 174.475C95.2584 174.812 93.1116 175.43 91.4168 176.33C89.722 177.173 88.4791 178.354 87.6882 179.872C86.8973 181.334 86.5018 183.218 86.5018 185.523ZM70.7406 194.715V202.137H24.3871V194.715H46.3351V148.92L33.2002 173.462H24.4718L40.9964 143.101H54.6397V194.715H70.7406ZM167.055 192.776V175.908H184.935V169.583H167.055V152.969H159.852V169.583H141.717V175.908H159.852V192.776H167.055Z" fill="#FFEA00"/>
<g filter="url(#filter0_f_151_2)">
<path d="M126.004 113.009C125.93 109.86 126.809 106.76 128.532 104.093C135.614 92.0332 142.772 79.8992 149.929 67.9132C151.948 64.539 155.013 61.8715 158.686 60.2925C162.95 58.4428 167.214 58.4428 171.098 61.1804C175.133 63.9919 176.199 68.1352 175.971 72.6484C175.819 76.4218 174.219 79.7513 172.24 83.0067C165.463 94.2528 158.838 105.499 152.214 116.819C150.476 119.913 147.859 122.456 144.675 124.144C135.142 129.064 126.004 123.811 126.004 113.009Z" fill="#FFEA00"/>
</g>
<g filter="url(#filter1_f_151_2)">
<path d="M127.004 274.009C126.93 270.86 127.809 267.76 129.532 265.093C136.614 253.033 143.772 240.899 150.929 228.913C152.948 225.539 156.013 222.871 159.686 221.292C163.95 219.443 168.214 219.443 172.098 222.18C176.133 224.992 177.199 229.135 176.971 233.648C176.819 237.422 175.219 240.751 173.24 244.007C166.463 255.253 159.838 266.499 153.214 277.819C151.476 280.913 148.859 283.456 145.675 285.144C136.142 290.064 127.004 284.811 127.004 274.009Z" fill="#FFEA00"/>
</g>
<defs>
<filter id="filter0_f_151_2" x="67" y="0" width="168" height="185" filterUnits="userSpaceOnUse" color-interpolation-filters="sRGB">
<feFlood flood-opacity="0" result="BackgroundImageFix"/>
<feBlend mode="normal" in="SourceGraphic" in2="BackgroundImageFix" result="shape"/>
<feGaussianBlur stdDeviation="29.5" result="effect1_foregroundBlur_151_2"/>
</filter>
<filter id="filter1_f_151_2" x="68" y="161" width="168" height="185" filterUnits="userSpaceOnUse" color-interpolation-filters="sRGB">
<feFlood flood-opacity="0" result="BackgroundImageFix"/>
<feBlend mode="normal" in="SourceGraphic" in2="BackgroundImageFix" result="shape"/>
<feGaussianBlur stdDeviation="29.5" result="effect1_foregroundBlur_151_2"/>
</filter>
</defs>
</svg>
