<svg viewBox="0 0 113 36" fill="none" xmlns="http://www.w3.org/2000/svg"><path d="M6.08.002.45 13.092h3.666l1.038-2.62h6.04l1.033 2.62h3.746L10.348.002H6.08ZM8.163 3.05l1.841 4.58H6.317l1.846-4.58Z" fill="#fff"/><path d="M6.08.002.45 13.092h3.666l1.038-2.62h6.04l1.033 2.62h3.746L10.348.002H6.08ZM8.163 3.05l1.841 4.58H6.317l1.846-4.58Z" stroke="#000"/><path d="M16.361 13.09V0l5.21.02L24.6 8.458 27.557 0h5.167v13.09h-3.273V3.445l-3.468 9.645h-2.87l-3.48-9.645v9.645h-3.272Z" fill="#fff"/><path d="M16.361 13.09V0l5.21.02L24.6 8.458 27.557 0h5.167v13.09h-3.273V3.445l-3.468 9.645h-2.87l-3.48-9.645v9.645h-3.272Z" stroke="#000"/><path d="M34.963 13.09V0h10.679v2.928H38.27v2.24h7.2v2.755h-7.2v2.325h7.372v2.842h-10.68Z" fill="#fff"/><path d="M34.963 13.09V0h10.679v2.928H38.27v2.24h7.2v2.755h-7.2v2.325h7.372v2.842h-10.68Z" stroke="#000"/><path d="M47.536.002v13.09h3.272v-4.65h1.378l3.924 4.65h3.999L55.803 8.27a3.986 3.986 0 0 0 3.59-4.021c0-2.755-2.162-4.247-4.575-4.247h-7.282Zm3.272 2.928h3.741c.897 0 1.55.702 1.55 1.378 0 .87-.846 1.378-1.502 1.378h-3.789V2.93Z" fill="#fff"/><path d="M47.536.002v13.09h3.272v-4.65h1.378l3.924 4.65h3.999L55.803 8.27a3.986 3.986 0 0 0 3.59-4.021c0-2.755-2.162-4.247-4.575-4.247h-7.282Zm3.272 2.928h3.741c.897 0 1.55.702 1.55 1.378 0 .87-.846 1.378-1.502 1.378h-3.789V2.93Z" stroke="#000"/><path d="M64.07 13.09h-3.34V0h3.341v13.09Z" fill="#fff"/><path d="M64.07 13.09h-3.34V0h3.341v13.09Z" stroke="#000"/><path d="M71.994 13.09h-.721c-3.49 0-5.609-2.75-5.609-6.491C65.664 2.765 67.76 0 72.166 0h3.617v3.1h-3.75c-1.788 0-3.053 1.396-3.053 3.531 0 2.535 1.446 3.6 3.53 3.6h.862l-1.378 2.86Z" fill="#fff"/><path d="M71.994 13.09h-.721c-3.49 0-5.609-2.75-5.609-6.491C65.664 2.765 67.76 0 72.166 0h3.617v3.1h-3.75c-1.788 0-3.053 1.396-3.053 3.531 0 2.535 1.446 3.6 3.53 3.6h.862l-1.378 2.86Z" stroke="#000"/><path d="m79.114.002-5.63 13.09h3.666l1.039-2.62h6.039l1.033 2.62h3.746L83.383.002h-4.269Zm2.083 3.047 1.841 4.58h-3.687l1.846-4.58Z" fill="#fff"/><path d="m79.114.002-5.63 13.09h3.666l1.039-2.62h6.039l1.033 2.62h3.746L83.383.002h-4.269Zm2.083 3.047 1.841 4.58h-3.687l1.846-4.58Z" stroke="#000"/><path d="M89.39 13.09V0h4.16l5.313 8.224V0h3.273v13.09H98.11l-5.447-8.44v8.44H89.39Z" fill="#fff"/><path d="M89.39 13.09V0h4.16l5.313 8.224V0h3.273v13.09H98.11l-5.447-8.44v8.44H89.39Z" stroke="#000"/><path d="M24.283 35.998v-13.09h10.679v2.928H27.59v2.239h7.2v2.756h-7.2v2.325h7.372v2.842H24.283Z" fill="#fff"/><path d="M24.283 35.998v-13.09h10.679v2.928H27.59v2.239h7.2v2.756h-7.2v2.325h7.372v2.842H24.283Z" stroke="#000"/><path d="M76.61 35.998v-13.09h10.678v2.928h-7.372v2.239h7.166v2.756h-7.166v2.325h7.372v2.842H76.61Z" fill="#fff"/><path d="M76.61 35.998v-13.09h10.678v2.928h-7.372v2.239h7.166v2.756h-7.166v2.325h7.372v2.842H76.61Z" stroke="#000"/><path d="m35.377 35.998 5.2-6.464-5.324-6.626h4.123l3.17 4.096 3.182-4.096h3.961l-5.253 6.545 5.209 6.545h-4.122l-3.079-4.032-3.003 4.032h-4.064Z" fill="#fff"/><path d="m35.377 35.998 5.2-6.464-5.324-6.626h4.123l3.17 4.096 3.182-4.096h3.961l-5.253 6.545 5.209 6.545h-4.122l-3.079-4.032-3.003 4.032h-4.064Z" stroke="#000"/><path d="M50.033 22.91V36h3.359v-4.134h3.445c2.914 0 5.124-1.546 5.124-4.553 0-2.491-1.733-4.403-4.7-4.403h-7.228Zm3.359 2.96h3.628c.941 0 1.614.577 1.614 1.507 0 .874-.67 1.507-1.625 1.507h-3.617V25.87Z" fill="#fff"/><path d="M50.033 22.91V36h3.359v-4.134h3.445c2.914 0 5.124-1.546 5.124-4.553 0-2.491-1.733-4.403-4.7-4.403h-7.228Zm3.359 2.96h3.628c.941 0 1.614.577 1.614 1.507 0 .874-.67 1.507-1.625 1.507h-3.617V25.87Z" stroke="#000"/><path d="M63.381 22.908v13.09h3.273v-4.65h1.378l3.924 4.65h3.999l-4.306-4.823a3.987 3.987 0 0 0 3.59-4.02c0-2.755-2.162-4.247-4.575-4.247H63.38Zm3.273 2.928h3.74c.898 0 1.55.702 1.55 1.378 0 .87-.845 1.378-1.5 1.378h-3.79v-2.756Z" fill="#fff"/><path d="M63.381 22.908v13.09h3.273v-4.65h1.378l3.924 4.65h3.999l-4.306-4.823a3.987 3.987 0 0 0 3.59-4.02c0-2.755-2.162-4.247-4.575-4.247H63.38Zm3.273 2.928h3.74c.898 0 1.55.702 1.55 1.378 0 .87-.845 1.378-1.5 1.378h-3.79v-2.756Z" stroke="#000"/><path d="M88.805 35.998v-2.842h6.549c.97 0 1.389-.524 1.389-1.098 0-.55-.419-1.107-1.389-1.107h-2.96c-2.572 0-4.005-1.567-4.005-3.92 0-2.1 1.312-4.123 5.135-4.123h6.373l-1.378 2.945h-5.512c-1.053 0-1.378.553-1.378 1.08 0 .543.401 1.142 1.206 1.142h3.1c2.868 0 4.113 1.627 4.113 3.757 0 2.29-1.387 4.166-4.269 4.166h-6.974Z" fill="#fff"/><path d="M88.805 35.998v-2.842h6.549c.97 0 1.389-.524 1.389-1.098 0-.55-.419-1.107-1.389-1.107h-2.96c-2.572 0-4.005-1.567-4.005-3.92 0-2.1 1.312-4.123 5.135-4.123h6.373l-1.378 2.945h-5.512c-1.053 0-1.378.553-1.378 1.08 0 .543.401 1.142 1.206 1.142h3.1c2.868 0 4.113 1.627 4.113 3.757 0 2.29-1.387 4.166-4.269 4.166h-6.974Z" stroke="#000"/><path d="M100.814 35.998v-2.842h6.55c.969 0 1.388-.524 1.388-1.098 0-.55-.418-1.107-1.388-1.107h-2.96c-2.572 0-4.005-1.567-4.005-3.92 0-2.1 1.312-4.123 5.135-4.123h6.373l-1.378 2.945h-5.512c-1.054 0-1.378.553-1.378 1.08 0 .543.401 1.142 1.206 1.142h3.1c2.868 0 4.112 1.627 4.112 3.757 0 2.29-1.386 4.166-4.268 4.166h-6.975Z" fill="#fff"/><path d="M100.814 35.998v-2.842h6.55c.969 0 1.388-.524 1.388-1.098 0-.55-.418-1.107-1.388-1.107h-2.96c-2.572 0-4.005-1.567-4.005-3.92 0-2.1 1.312-4.123 5.135-4.123h6.373l-1.378 2.945h-5.512c-1.054 0-1.378.553-1.378 1.08 0 .543.401 1.142 1.206 1.142h3.1c2.868 0 4.112 1.627 4.112 3.757 0 2.29-1.386 4.166-4.268 4.166h-6.975Z" stroke="#000"/></svg>