<svg width="62" height="61" viewBox="0 0 62 61" fill="none" xmlns="http://www.w3.org/2000/svg">
<path fill-rule="evenodd" clip-rule="evenodd" d="M32.0157 43.6684C35.651 43.6684 39.1373 42.2243 41.7078 39.6538C44.2783 37.0833 45.7224 33.5969 45.7224 29.9617C45.7224 26.3264 44.2783 22.8401 41.7078 20.2696C39.1373 17.6991 35.651 16.255 32.0157 16.255C28.3805 16.255 24.8941 17.6991 22.3236 20.2696C19.7531 22.8401 18.309 26.3264 18.309 29.9617C18.309 33.5969 19.7531 37.0833 22.3236 39.6538C24.8941 42.2243 28.3805 43.6684 32.0157 43.6684ZM32.0157 39.6073C34.5739 39.6073 37.0273 38.5911 38.8362 36.7822C40.6451 34.9733 41.6614 32.5199 41.6614 29.9617C41.6614 27.4035 40.6451 24.9501 38.8362 23.1412C37.0273 21.3323 34.5739 20.316 32.0157 20.316C29.4576 20.316 27.0042 21.3323 25.1952 23.1412C23.3863 24.9501 22.3701 27.4035 22.3701 29.9617C22.3701 32.5199 23.3863 34.9733 25.1952 36.7822C27.0042 38.5911 29.4576 39.6073 32.0157 39.6073ZM21.356 29.9601C21.356 31.36 21.6317 32.7462 22.1674 34.0395C22.7031 35.3328 23.4883 36.5079 24.4782 37.4977C25.468 38.4876 26.6431 39.2728 27.9364 39.8085C29.2297 40.3442 30.6159 40.6199 32.0157 40.6199C33.4156 40.6199 34.8017 40.3442 36.095 39.8085C37.3883 39.2728 38.5635 38.4876 39.5533 37.4977C40.5432 36.5079 41.3284 35.3328 41.8641 34.0395C42.3998 32.7462 42.6755 31.36 42.6755 29.9601C42.6755 27.133 41.5524 24.4217 39.5533 22.4226C37.5542 20.4235 34.8429 19.3004 32.0157 19.3004C29.1886 19.3004 26.4772 20.4235 24.4782 22.4226C22.4791 24.4217 21.356 27.133 21.356 29.9601ZM32.7325 0C34.2392 0.29331 35.5895 1.1206 36.535 2.32981C37.4806 3.53902 37.958 5.04889 37.8794 6.5819L38.0441 6.5026L41.3869 13.2522L43.3282 14.8352C42.6787 13.703 42.3925 12.3988 42.5081 11.0987C42.6238 9.79857 43.1357 8.56531 43.9748 7.56553C45.2136 8.60524 46.0107 10.0772 46.2044 11.6828C46.3981 13.2885 45.9739 14.9078 45.0179 16.2123L46.0503 17.0541L45.9588 20.0217L44.7236 19.9836L44.7952 17.6122L40.4475 14.0666C38.9267 14.5219 37.2908 14.3933 35.8599 13.7059C34.429 13.0185 33.3061 11.8219 32.7111 10.3502C33.7451 9.9318 34.8707 9.7923 35.9755 9.94565C37.0803 10.099 38.1254 10.5398 39.0063 11.224L37.0574 7.2895C35.5679 6.81632 34.3042 5.81231 33.5065 4.46834C32.7089 3.12438 32.4328 1.53416 32.731 0H32.7325ZM31.9395 45.6966H36.67V48.7421L41.8245 51.789V60.9283H22.2374V51.789L27.3919 48.7421L27.4163 45.6966H31.938H31.9395ZM22.059 12.6758C21.9804 11.1424 22.4579 9.63214 23.4038 8.42264C24.3496 7.21315 25.7003 6.38569 27.2074 6.09237C27.5055 7.62653 27.2295 9.21675 26.4318 10.5607C25.6342 11.9047 24.3705 12.9087 22.881 13.3819L19.6053 19.9973L18.4936 19.4636L21.8943 12.5965L22.059 12.6758ZM18.0269 11.6297C16.7325 12.7158 15.9225 14.2717 15.7752 15.9551C15.628 17.6384 16.1554 19.3113 17.2415 20.6058C18.536 19.5196 19.3459 17.9637 19.4932 16.2804C19.6405 14.597 19.113 12.9241 18.0269 11.6297Z" fill="#FFEA00"/>
</svg>
