<svg width="61" height="61" viewBox="0 0 61 61" fill="none" xmlns="http://www.w3.org/2000/svg">
<path fill-rule="evenodd" clip-rule="evenodd" d="M30.5 50.021C42.098 50.021 51.5 40.949 51.5 29.7605C51.5 18.5705 42.098 9.5 30.5 9.5C18.902 9.5 9.5 18.5705 9.5 29.7605C9.5 40.9505 18.902 50.021 30.5 50.021Z" fill="#FFEA00"/>
<path d="M30.5001 46.2649C39.9471 46.2649 47.6061 38.8744 47.6061 29.7589C47.6061 20.6434 39.9471 13.2544 30.5001 13.2544C21.0501 13.2544 13.3926 20.6434 13.3926 29.7589C13.3926 38.8744 21.0501 46.2649 30.5001 46.2649Z" stroke="black" stroke-width="0.7"/>
<mask id="mask0_21_2273" style="mask-type:alpha" maskUnits="userSpaceOnUse" x="19" y="18" width="23" height="21">
<path fill-rule="evenodd" clip-rule="evenodd" d="M25.3145 25.322H29.21V36.0575H25.3145V25.322ZM26.3645 26.372V35.0075H28.16V26.372H26.3645ZM31.6655 25.322H35.561V36.0575H31.6655V25.322ZM32.7155 26.372V35.0075H34.511V26.372H32.7155ZM30.551 18.311L30.749 18.3905L41.6075 22.7915L41.9285 22.922L41.9345 23.267L41.9855 25.838L41.9975 26.3735H39.1685V35.009H41.9345V38.6285H19.1675V35.009H21.935V26.3735H19.1675V22.925L19.496 22.7915L30.3545 18.3905L30.551 18.311ZM20.2175 23.6315V25.3235H22.985V36.059H20.2175V37.5785H40.8845V36.059H38.12V25.3235H40.925L40.892 23.6345L30.551 19.4435L20.2175 23.6315Z" fill="white"/>
</mask>
<g mask="url(#mask0_21_2273)">
<path d="M25.3145 25.3219V22.3219C24.5188 22.3219 23.7558 22.638 23.1932 23.2006C22.6306 23.7632 22.3145 24.5262 22.3145 25.3219H25.3145ZM29.21 25.3219H32.21C32.21 24.5262 31.8939 23.7632 31.3313 23.2006C30.7687 22.638 30.0056 22.3219 29.21 22.3219V25.3219ZM29.21 36.0574V39.0574C30.0056 39.0574 30.7687 38.7413 31.3313 38.1787C31.8939 37.6161 32.21 36.853 32.21 36.0574H29.21ZM25.3145 36.0574H22.3145C22.3145 36.853 22.6306 37.6161 23.1932 38.1787C23.7558 38.7413 24.5188 39.0574 25.3145 39.0574V36.0574ZM26.3645 35.0074H23.3645C23.3645 35.803 23.6806 36.5661 24.2432 37.1287C24.8058 37.6913 25.5688 38.0074 26.3645 38.0074V35.0074ZM26.3645 26.3719V23.3719C25.5688 23.3719 24.8058 23.688 24.2432 24.2506C23.6806 24.8132 23.3645 25.5762 23.3645 26.3719H26.3645ZM28.16 35.0074V38.0074C28.9556 38.0074 29.7187 37.6913 30.2813 37.1287C30.8439 36.5661 31.16 35.803 31.16 35.0074H28.16ZM28.16 26.3719H31.16C31.16 25.5762 30.8439 24.8132 30.2813 24.2506C29.7187 23.688 28.9556 23.3719 28.16 23.3719V26.3719ZM31.6655 25.3219V22.3219C30.8698 22.3219 30.1068 22.638 29.5442 23.2006C28.9816 23.7632 28.6655 24.5262 28.6655 25.3219H31.6655ZM35.561 25.3219H38.561C38.561 24.5262 38.2449 23.7632 37.6823 23.2006C37.1197 22.638 36.3566 22.3219 35.561 22.3219V25.3219ZM35.561 36.0574V39.0574C36.3566 39.0574 37.1197 38.7413 37.6823 38.1787C38.2449 37.6161 38.561 36.853 38.561 36.0574H35.561ZM31.6655 36.0574H28.6655C28.6655 36.853 28.9816 37.6161 29.5442 38.1787C30.1068 38.7413 30.8698 39.0574 31.6655 39.0574V36.0574ZM32.7155 35.0074H29.7155C29.7155 35.803 30.0315 36.5661 30.5942 37.1287C31.1568 37.6913 31.9198 38.0074 32.7155 38.0074V35.0074ZM32.7155 26.3719V23.3719C31.9198 23.3719 31.1568 23.688 30.5942 24.2506C30.0315 24.8132 29.7155 25.5762 29.7155 26.3719H32.7155ZM34.511 35.0074V38.0074C35.3066 38.0074 36.0697 37.6913 36.6323 37.1287C37.1949 36.5661 37.511 35.803 37.511 35.0074H34.511ZM34.511 26.3719H37.511C37.511 25.5762 37.1949 24.8132 36.6323 24.2506C36.0697 23.688 35.3066 23.3719 34.511 23.3719V26.3719ZM30.749 18.3919L31.8755 15.6109L30.749 18.3904V18.3919ZM30.551 18.3109L31.679 15.5299C30.9561 15.2368 30.1474 15.2368 29.4245 15.5299L30.551 18.3109ZM41.606 22.7914L42.734 20.0119L41.6075 22.7914H41.606ZM41.9285 22.9219L44.9285 22.8619C44.9167 22.2746 44.7327 21.7037 44.3994 21.22C44.0661 20.7363 43.5981 20.3611 43.0535 20.1409L41.9285 22.9219ZM41.9345 23.2669L44.9345 23.2069L41.9345 23.2669ZM41.9855 25.8379L44.9855 25.7779L41.9855 25.8379ZM41.9975 26.3734V29.3734C42.3965 29.3735 42.7916 29.2939 43.1596 29.1394C43.5275 28.9849 43.8609 28.7586 44.1403 28.4736C44.4197 28.1886 44.6394 27.8508 44.7866 27.4799C44.9338 27.1089 45.0055 26.7124 44.9975 26.3134L41.9975 26.3734ZM39.1685 26.3734V23.3734C38.3728 23.3734 37.6098 23.6895 37.0472 24.2521C36.4845 24.8147 36.1685 25.5777 36.1685 26.3734H39.1685ZM39.1685 35.0089H36.1685C36.1685 35.8045 36.4845 36.5676 37.0472 37.1302C37.6098 37.6928 38.3728 38.0089 39.1685 38.0089V35.0089ZM41.9345 35.0089H44.9345C44.9345 34.2132 44.6184 33.4502 44.0558 32.8876C43.4932 32.325 42.7301 32.0089 41.9345 32.0089V35.0089ZM41.9345 38.6284V41.6284C42.7301 41.6284 43.4932 41.3123 44.0558 40.7497C44.6184 40.1871 44.9345 39.424 44.9345 38.6284H41.9345ZM19.1675 38.6284H16.1675C16.1675 39.424 16.4836 40.1871 17.0462 40.7497C17.6088 41.3123 18.3718 41.6284 19.1675 41.6284V38.6284ZM19.1675 35.0089V32.0089C18.3718 32.0089 17.6088 32.325 17.0462 32.8876C16.4836 33.4502 16.1675 34.2132 16.1675 35.0089H19.1675ZM21.9335 35.0089V38.0089C22.7291 38.0089 23.4922 37.6928 24.0548 37.1302C24.6174 36.5676 24.9335 35.8045 24.9335 35.0089H21.9335ZM21.9335 26.3734H24.9335C24.9335 25.5777 24.6174 24.8147 24.0548 24.2521C23.4922 23.6895 22.7291 23.3734 21.9335 23.3734V26.3734ZM19.1675 26.3734H16.1675C16.1675 27.169 16.4836 27.9321 17.0462 28.4947C17.6088 29.0573 18.3718 29.3734 19.1675 29.3734V26.3734ZM19.1675 22.9234L18.0425 20.1439C17.4885 20.368 17.0141 20.7524 16.68 21.2479C16.346 21.7434 16.1675 22.3273 16.1675 22.9249H19.1675V22.9234ZM19.496 22.7914L20.6225 25.5724L19.496 22.7914ZM30.3545 18.3904L29.228 15.6109L30.353 18.3904H30.3545ZM20.2175 25.3234H17.2175C17.2175 26.119 17.5336 26.8821 18.0962 27.4447C18.6588 28.0073 19.4218 28.3234 20.2175 28.3234V25.3234ZM20.2175 23.6314L19.0925 20.8519C18.5388 21.0759 18.0645 21.4601 17.7305 21.9553C17.3964 22.4504 17.2178 23.0341 17.2175 23.6314H20.2175ZM22.9835 25.3234H25.9835C25.9835 24.5277 25.6674 23.7647 25.1048 23.2021C24.5422 22.6395 23.7791 22.3234 22.9835 22.3234V25.3234ZM22.9835 36.0589V39.0589C23.3774 39.0589 23.7676 38.9813 24.1315 38.8305C24.4955 38.6798 24.8262 38.4588 25.1048 38.1802C25.3834 37.9016 25.6044 37.5709 25.7551 37.2069C25.9059 36.843 25.9835 36.4529 25.9835 36.0589H22.9835ZM20.2175 36.0589V33.0589C19.4218 33.0589 18.6588 33.375 18.0962 33.9376C17.5336 34.5002 17.2175 35.2632 17.2175 36.0589H20.2175ZM20.2175 37.5784H17.2175C17.2175 38.374 17.5336 39.1371 18.0962 39.6997C18.6588 40.2623 19.4218 40.5784 20.2175 40.5784V37.5784ZM40.8845 37.5784V40.5784C41.6801 40.5784 42.4432 40.2623 43.0058 39.6997C43.5684 39.1371 43.8845 38.374 43.8845 37.5784H40.8845ZM40.8845 36.0589H43.8845C43.8845 35.2632 43.5684 34.5002 43.0058 33.9376C42.4432 33.375 41.6801 33.0589 40.8845 33.0589V36.0589ZM38.12 36.0589H35.12C35.12 36.8545 35.4361 37.6176 35.9987 38.1802C36.5613 38.7428 37.3243 39.0589 38.12 39.0589V36.0589ZM38.12 25.3234V22.3234C37.3243 22.3234 36.5613 22.6395 35.9987 23.2021C35.4361 23.7647 35.12 24.5277 35.12 25.3234H38.12ZM40.925 25.3234V28.3234C41.324 28.3235 41.7191 28.2439 42.0871 28.0894C42.455 27.9349 42.7884 27.7086 43.0678 27.4236C43.3472 27.1386 43.5669 26.8008 43.7141 26.4299C43.8613 26.059 43.933 25.6624 43.925 25.2634L40.925 25.3234ZM40.892 23.6344L43.892 23.5744C43.88 22.9875 43.6961 22.4171 43.3631 21.9337C43.0301 21.4503 42.5626 21.0752 42.0185 20.8549L40.892 23.6344ZM30.551 19.4434L31.679 16.6639C30.9561 16.3708 30.1474 16.3708 29.4245 16.6639L30.551 19.4434ZM25.8395 22.3219H25.3145V28.3219H25.8395V22.3219ZM28.685 22.3219H25.8395V28.3219H28.685V22.3219ZM29.21 22.3219H28.685V28.3219H29.21V22.3219ZM32.21 25.8469V25.3219H26.21V25.8469H32.21ZM32.21 35.5324V25.8469H26.21V35.5324H32.21ZM32.21 36.0574V35.5324H26.21V36.0574H32.21ZM28.685 39.0574H29.21V33.0574H28.685V39.0574ZM25.8395 39.0574H28.685V33.0574H25.8395V39.0574ZM25.3145 39.0574H25.8395V33.0574H25.3145V39.0574ZM22.3145 35.5324V36.0574H28.3145V35.5324H22.3145ZM22.3145 25.8469V35.5324H28.3145V25.8469H22.3145ZM22.3145 25.3219V25.8469H28.3145V25.3219H22.3145ZM29.3645 35.0074V26.3719H23.3645V35.0074H29.3645ZM28.16 32.0074H26.3645V38.0074H28.16V32.0074ZM25.16 26.3719V35.0074H31.16V26.3719H25.16ZM26.3645 29.3719H28.16V23.3719H26.3645V29.3719ZM32.1905 22.3219H31.6655V28.3219H32.1905V22.3219ZM35.036 22.3219H32.1905V28.3219H35.036V22.3219ZM35.561 22.3219H35.036V28.3219H35.561V22.3219ZM38.561 25.8469V25.3219H32.561V25.8469H38.561ZM38.561 35.5324V25.8469H32.561V35.5324H38.561ZM38.561 36.0574V35.5324H32.561V36.0574H38.561ZM35.036 39.0574H35.561V33.0574H35.036V39.0574ZM32.1905 39.0574H35.036V33.0574H32.1905V39.0574ZM31.6655 39.0574H32.1905V33.0574H31.6655V39.0574ZM28.6655 35.5324V36.0574H34.6655V35.5324H28.6655ZM28.6655 25.8469V35.5324H34.6655V25.8469H28.6655ZM28.6655 25.3219V25.8469H34.6655V25.3219H28.6655ZM35.7155 35.0074V26.3719H29.7155V35.0074H35.7155ZM34.511 32.0074H32.7155V38.0074H34.511V32.0074ZM31.511 26.3719V35.0074H37.511V26.3719H31.511ZM32.7155 29.3719H34.511V23.3719H32.7155V29.3719ZM31.8755 15.6109L31.679 15.5314L29.4245 21.0919L29.6225 21.1714L31.8755 15.6109ZM42.7355 20.0119L31.8755 15.6109L29.6225 21.1714L40.481 25.5724L42.734 20.0119H42.7355ZM43.055 20.1409L42.734 20.0119L40.481 25.5724L40.8005 25.7014L43.055 20.1409ZM44.9345 23.2084L44.927 22.8619L38.9285 22.9819L38.936 23.3269L44.9345 23.2069V23.2084ZM44.9855 25.7779L44.9345 23.2084L38.9345 23.3284L38.987 25.8979L44.9855 25.7779ZM44.996 26.3134L44.9855 25.7779L38.9855 25.8979L38.9975 26.4334L44.9975 26.3134H44.996ZM41.4605 29.3734H41.9975V23.3734H41.462V29.3734H41.4605ZM39.17 29.3734H41.4605V23.3734H39.17V29.3734ZM42.17 35.0089V26.3734H36.17V35.0089H42.17ZM41.4095 32.0089H39.17V38.0089H41.411V32.0089H41.4095ZM41.9345 32.0089H41.4095V38.0089H41.9345V32.0089ZM44.9345 35.5339V35.0089H38.9345V35.5339H44.9345ZM44.9345 38.1034V35.5339H38.9345V38.1034H44.9345ZM44.9345 38.6284V38.1034H38.9345V38.6284H44.9345ZM41.4095 41.6284H41.9345V35.6284H41.4095V41.6284ZM19.6925 41.6284H41.4095V35.6284H19.6925V41.6284ZM19.1675 41.6284H19.6925V35.6284H19.1675V41.6284ZM16.1675 38.1034V38.6284H22.1675V38.1034H16.1675ZM16.1675 35.5339V38.1034H22.1675V35.5339H16.1675ZM16.1675 35.0089V35.5339H22.1675V35.0089H16.1675ZM19.6925 32.0089H19.1675V38.0089H19.6925V32.0089ZM21.9335 32.0089H19.6925V38.0089H21.9335V32.0089ZM18.9335 26.3734V35.0089H24.9335V26.3734H18.9335ZM19.6925 29.3734H21.9335V23.3734H19.6925V29.3734ZM19.1675 29.3734H19.6925V23.3734H19.1675V29.3734ZM16.1675 25.8484V26.3734H22.1675V25.8484H16.1675ZM16.1675 23.2789V25.8484H22.1675V23.2789H16.1675ZM16.1675 22.9249V23.2789H22.1675V22.9249H16.1675ZM18.3695 20.0119L18.041 20.1439L20.294 25.7044L20.624 25.5724L18.3695 20.0119ZM29.228 15.6109L18.368 20.0119L20.6225 25.5724L31.4825 21.1714L29.228 15.6109ZM29.4245 15.5314L29.228 15.6109L31.481 21.1714L31.679 21.0919L29.4245 15.5314ZM23.2175 25.3234V23.6299H17.2175V25.3219H23.2175V25.3234ZM22.4585 22.3234H20.2175V28.3234H22.4585V22.3234ZM22.9835 22.3234H22.4585V28.3234H22.9835V22.3234ZM25.9835 25.8484V25.3234H19.9835V25.8484H25.9835ZM25.9835 35.5339V25.8484H19.9835V35.5339H25.9835ZM25.9835 36.0589V35.5339H19.9835V36.0589H25.9835ZM22.4585 39.0589H22.9835V33.0589H22.4585V39.0589ZM20.2175 39.0589H22.4585V33.0589H20.2175V39.0589ZM23.2175 37.5784V36.0589H17.2175V37.5784H23.2175ZM40.8845 34.5784H20.2175V40.5784H40.8845V34.5784ZM37.8845 36.0589V37.5784H43.8845V36.0589H37.8845ZM38.645 39.0589H40.8845V33.0589H38.645V39.0589ZM38.12 39.0589H38.645V33.0589H38.12V39.0589ZM35.12 35.5339V36.0589H41.12V35.5339H35.12ZM35.12 25.8484V35.5339H41.12V25.8484H35.12ZM35.12 25.3234V25.8484H41.12V25.3234H35.12ZM38.645 22.3234H38.12V28.3234H38.645V22.3234ZM40.925 22.3234H38.645V28.3234H40.925V22.3234ZM37.892 23.6944L37.9265 25.3834L43.9265 25.2634L43.892 23.5744L37.892 23.6944ZM29.4245 22.2244L39.7655 26.4154L42.0185 20.8549L31.679 16.6639L29.4245 22.2244ZM21.344 26.4124L31.679 22.2244L29.4245 16.6639L19.091 20.8519L21.344 26.4124Z" fill="black"/>
</g>
</svg>
