<svg width="61" height="60" viewBox="0 0 61 60" fill="none" xmlns="http://www.w3.org/2000/svg">
<path fill-rule="evenodd" clip-rule="evenodd" d="M39.0738 46.7264C45.5093 39.2399 46.0918 33.0434 45.6282 28.0604C44.5958 16.9709 35.7782 8.45092 27.9718 4.91542C27.6972 4.79361 27.4195 4.67858 27.1391 4.57042C26.3461 4.25842 25.6355 5.03542 25.5684 5.87242C25.4067 7.86742 23.8512 10.1519 21.9968 12.8789C19.2976 16.8494 15.9609 21.7559 15.36 28.0589C14.201 40.2389 22.6221 46.7264 22.6221 46.7264H26.6176C26.7563 46.7339 30.8342 46.7294 33.3154 46.7279H39.0738V46.7264ZM35.1881 46.7264C40.5866 39.2399 42.8649 32.4779 42.046 26.3504C41.2057 20.0579 36.7207 14.1734 28.6412 8.68942L28.0694 8.30092L27.8055 8.93242C26.8234 11.2814 25.4113 13.9079 23.5676 16.8089C19.871 22.6304 18.4146 26.1449 18.4146 30.7844C18.4146 36.0794 21.1611 41.4164 26.616 46.7264H35.1881ZM34.0291 46.4429C39.4337 39.0404 41.7257 32.3924 40.9373 26.4929C40.1626 20.6984 36.0543 15.1919 28.5696 9.98242C27.5783 12.2264 26.2287 14.6954 24.5161 17.3924C20.9217 23.0519 19.5339 26.4029 19.5339 30.7844C19.5339 35.9219 22.3293 41.1404 27.9596 46.4444L28.3103 46.7264H33.8156L34.0291 46.4429Z" fill="#FFEA00"/>
<path d="M41.343 48.9268H20.3895L16.0234 52.7668V55.5283H45.7076V52.7878L41.343 48.9268Z" fill="#FFEA00"/>
<path fill-rule="evenodd" clip-rule="evenodd" d="M27.1327 45.699C25.9356 45.0075 23.7762 41.2965 22.2741 38.217C20.7735 35.139 20.0384 35.139 19.8432 32.142C19.648 29.145 20.0384 28.401 21.0175 25.7205C21.998 23.04 23.7472 21.168 23.7472 21.168C23.7472 21.168 24.7324 19.416 25.7922 17.7075C26.8521 15.999 27.3386 15.5805 27.9577 14.3805C28.5799 13.182 28.952 11.607 28.952 11.607C28.952 11.607 30.0333 12.7005 31.7702 14.382C33.5057 16.062 33.9998 16.2375 35.2533 17.7075C36.5084 19.1775 37.5591 21.168 37.5591 21.168L39.1817 24.3165C39.1817 24.3165 40.0967 26.3745 40.0967 29.0265C40.0967 31.6755 39.1817 34.356 39.1817 34.356L37.5591 38.217C37.5591 38.217 36.9202 39.8415 35.9686 42.0585C35.017 44.2755 35.4379 44.118 34.1355 45.297C32.8347 46.4745 30.4847 46.7265 30.4847 46.7265C30.4847 46.7265 28.3283 46.392 27.1327 45.7005V45.699Z" fill="#FFEA00"/>
</svg>
