<svg width="62" height="61" viewBox="0 0 62 61" fill="none" xmlns="http://www.w3.org/2000/svg">
<path fill-rule="evenodd" clip-rule="evenodd" d="M45.5437 44.3163C45.4797 44.3163 45.379 44.2812 45.1244 44.1547L28.1862 32.8331C28.1023 32.737 27.9956 32.5464 27.9956 32.4411V12.3889C27.9956 12.0565 28.1786 11.8765 28.5369 11.8765V10.6748C27.5243 10.6748 26.7939 11.3855 26.7939 12.3889V32.4427C26.7939 32.9307 27.0531 33.3927 27.4313 33.7633L44.5266 45.1947C45.0237 45.4448 45.2281 45.5195 45.5437 45.5195C46.0317 45.5195 46.5014 45.2694 46.8781 44.9019L46.9559 44.8074C49.4737 41.062 50.8248 36.8164 50.8248 32.4411C50.8248 20.4089 40.8498 10.6748 28.5369 10.6748V11.8765C40.194 11.8765 49.6231 21.0799 49.6231 32.4411C49.6231 36.5495 48.3589 40.545 45.9951 44.0815C45.8335 44.2263 45.6551 44.3178 45.5437 44.3178V44.3163ZM24.0031 33.8777V18.9373L23.2742 19.1004C16.2866 20.6422 11.1748 26.8078 11.1748 33.8777C11.1748 42.3262 18.1913 49.1231 26.8899 49.1231C30.89 49.1231 34.6369 47.7079 37.4155 45.1337L37.9767 44.6152L25.2582 36.2018C24.4606 35.6192 24.0031 34.7774 24.0031 33.8792V33.8777Z" fill="#FFEA00"/>
</svg>
