<svg width="210" height="210" viewBox="0 0 210 210" fill="none" xmlns="http://www.w3.org/2000/svg">
<path fill-rule="evenodd" clip-rule="evenodd" d="M105 210C162.99 210 210 162.99 210 105C210 47.0101 162.99 0 105 0C47.0101 0 0 47.0101 0 105C0 162.99 47.0101 210 105 210ZM136.33 116.679C136.33 119.997 135.793 122.892 134.72 125.366C133.703 127.784 132.036 129.808 129.72 131.438C127.46 133.013 124.551 134.193 120.992 134.981C117.489 135.768 113.224 136.161 108.196 136.161L106.416 136.077C96.4165 136.077 89.1288 134.503 84.5528 131.354C79.9767 128.149 77.6887 123.258 77.6887 116.679C77.6887 114.599 77.9712 112.744 78.5361 111.113C79.1011 109.483 79.8637 108.077 80.8242 106.896C81.841 105.659 82.9992 104.591 84.2985 103.691C85.5979 102.792 86.982 102.061 88.4509 101.499C86.4736 100.205 84.8917 98.6312 83.7054 96.7757C82.519 94.9203 81.9258 92.7276 81.9258 90.1974C81.9258 87.5549 82.3777 85.1934 83.2816 83.1131C84.1856 80.9766 85.5979 79.1774 87.5187 77.7155C89.496 76.2537 92.0382 75.1292 95.1454 74.342C98.2526 73.5549 102.009 73.1613 106.416 73.1613C109.523 73.1613 112.602 73.33 115.653 73.6673C118.704 74.0047 121.443 74.7637 123.873 75.9444C126.302 77.1252 128.251 78.84 129.72 81.089C131.245 83.338 132.008 86.3741 132.008 90.1974C132.008 92.7276 131.443 94.9203 130.313 96.7757C129.183 98.5749 127.686 100.121 125.822 101.414C127.234 101.977 128.562 102.707 129.805 103.607C131.104 104.507 132.234 105.575 133.194 106.812C134.155 107.993 134.917 109.398 135.482 111.029C136.047 112.659 136.33 114.543 136.33 116.679ZM90.7389 90.4505C90.7389 92.4183 91.2756 93.9645 92.349 95.089C93.4224 96.2135 94.7782 97.0569 96.4165 97.6191C98.0549 98.1251 99.8062 98.4625 101.671 98.6312C103.591 98.7436 105.343 98.7998 106.924 98.7998H107.857C109.495 98.7998 111.218 98.7436 113.026 98.6312C114.834 98.4625 116.5 98.1251 118.026 97.6191C119.551 97.0569 120.794 96.2135 121.754 95.089C122.771 93.9645 123.28 92.4183 123.28 90.4505C123.28 88.4826 122.941 86.8521 122.263 85.5589C121.641 84.2657 120.681 83.2537 119.381 82.5227C118.082 81.7356 116.472 81.2014 114.551 80.9203C112.63 80.583 110.399 80.4143 107.857 80.4143H106.924C104.382 80.4143 102.094 80.583 100.06 80.9203C98.0831 81.2014 96.3883 81.7356 94.976 82.5227C93.6201 83.2537 92.5749 84.2657 91.8405 85.5589C91.1061 86.8521 90.7389 88.4826 90.7389 90.4505ZM86.5018 117.523C86.5018 120.222 87.208 122.33 88.6203 123.848C90.0892 125.366 91.8688 126.491 93.9591 127.222C96.0493 127.952 98.2526 128.402 100.569 128.571C102.942 128.683 105.032 128.74 106.84 128.74H107.687C109.495 128.74 111.529 128.655 113.789 128.487C116.105 128.318 118.28 127.868 120.314 127.137C122.347 126.406 124.042 125.282 125.398 123.764C126.81 122.246 127.517 120.137 127.517 117.438C127.517 115.189 127.178 113.334 126.5 111.872C125.822 110.41 124.72 109.258 123.195 108.414C121.669 107.515 119.692 106.896 117.263 106.559C114.834 106.165 111.868 105.969 108.365 105.969H107.263C103.648 105.969 100.512 106.137 97.8572 106.475C95.2584 106.812 93.1116 107.43 91.4168 108.33C89.722 109.173 88.4791 110.354 87.6882 111.872C86.8973 113.334 86.5018 115.218 86.5018 117.523ZM70.7406 126.715V134.137H24.3871V126.715H46.3351V80.9203L33.2002 105.462H24.4718L40.9964 75.1011H54.6397V126.715H70.7406ZM167.055 124.776V107.908H184.935V101.583H167.055V84.9685H159.852V101.583H141.717V107.908H159.852V124.776H167.055Z" fill="#FFEA00"/>
</svg>
