<svg xmlns="http://www.w3.org/2000/svg" viewBox="0 0 161.5 161.5"><g id="Слой_2" data-name="Слой 2"><g id="Слой_1-2" data-name="Слой 1"><path fill="#1d1d1b" d="M0 0h161.5v161.5H0z"/><path d="M128.06 78.78a26.42 26.42 0 01-3.2 12.6q-14.25 24.9-28.6 49.6a23.88 23.88 0 01-7.7 8.1c-6.2 3.9-12.6 5.4-19.3 1.3-5.5-3.4-8.3-11.1-6.9-18.5 1.2-6.6 5-11.9 8.2-17.5q11.55-20.1 23.2-40.2a24.71 24.71 0 018.6-8.7c5.7-3.5 11.7-4.5 17.8-1.2 6 3.1 7.7 8.8 7.9 14.5zm-94.62 2.9a21.71 21.71 0 013.32-12.05c9.3-16.3 18.7-32.7 28.1-48.9a25 25 0 0111.5-10.3c5.6-2.5 11.2-2.5 16.3 1.2 5.3 3.8 6.7 9.4 6.4 15.5-.2 5.1-2.3 9.6-4.9 14-8.9 15.2-17.6 30.4-26.3 45.7a24.82 24.82 0 01-9.9 9.9c-12.52 6.65-24.52-.45-24.52-15.05z" fill="#ffea00"/></g></g></svg>