<svg width="1700" height="1718" viewBox="0 0 1700 1718" fill="none" xmlns="http://www.w3.org/2000/svg">
<g clip-path="url(#clip0_21_2298)">
<path d="M1552.77 1130.52C1402.79 1513.59 970.671 1702.55 587.604 1552.56" stroke="#383838" stroke-width="5" stroke-linecap="round"/>
<path d="M242.356 1041.04C141.843 700.616 336.333 343.164 676.76 242.652" stroke="#383838" stroke-width="5" stroke-linecap="round"/>
<path d="M661.22 382.395C397.984 491.682 273.184 793.673 382.472 1056.91C491.759 1320.15 793.75 1444.95 1056.99 1335.66" stroke="#383838" stroke-width="5" stroke-linecap="round"/>
<path d="M1443.57 1196.5C1257.17 1519.35 844.348 1629.96 521.5 1443.57C198.653 1257.17 88.0367 844.348 274.433 521.5" stroke="#383838" stroke-width="5" stroke-linecap="round"/>
<path d="M1453 859C1453 1187.06 1187.06 1453 859 1453C530.943 1453 265 1187.06 265 859" stroke="#383838" stroke-width="5" stroke-linecap="round"/>
<path d="M1550.09 1258C1770.45 876.323 1639.68 388.274 1258 167.912C876.322 -52.4495 388.273 78.3229 167.912 460" stroke="#383838" stroke-width="5" stroke-linecap="round"/>
<path d="M1550 859C1550 477.371 1240.63 168 859 168" stroke="#32353D" stroke-width="5" stroke-linecap="round"/>
<path d="M1578 859C1578 1256.09 1256.09 1578 859 1578C461.907 1578 140 1256.09 140 859" stroke="#383838" stroke-width="5" stroke-linecap="round"/>
<path d="M1254.34 625.793C1125.55 407.451 844.135 334.861 625.793 463.657C407.451 592.454 334.861 873.865 463.657 1092.21" stroke="#383838" stroke-width="5" stroke-linecap="round"/>
<path d="M1310.34 592.832C1457.44 842.191 1374.53 1163.58 1125.17 1310.67" stroke="#32353D" stroke-width="7.07495" stroke-linecap="round"/>
<circle cx="859" cy="859" r="841" stroke="#383838" stroke-width="5" stroke-linecap="round"/>
<path d="M1578 859C1578 461.907 1256.09 140 859 140C461.907 140 140 461.907 140 859" stroke="#32353D" stroke-width="5" stroke-linecap="round"/>
<path d="M859 1425C546.407 1425 293 1171.59 293 859C293 546.407 546.407 293 859 293" stroke="#8D8D8D" stroke-opacity="0.5" stroke-width="5" stroke-linecap="round"/>
<path d="M859 1718C384.587 1718 0 1333.41 0 859C0 384.587 384.587 0 859 0" stroke="#32353D" stroke-width="5" stroke-linecap="round"/>
<path d="M369.014 630.311C494.978 359.949 816.263 242.892 1086.62 368.857C1356.99 494.821 1474.04 816.106 1348.08 1086.47" stroke="#383838" stroke-width="5" stroke-linecap="round"/>
<path d="M1270 859.5C1270 1086.21 1086.21 1270 859.5 1270C632.787 1270 449 1086.21 449 859.5" stroke="#383838" stroke-width="5" stroke-linecap="round"/>
<path d="M1104.05 1391.97C809.477 1527.4 460.889 1398.38 325.461 1103.81" stroke="#8D8D8D" stroke-opacity="0.5" stroke-width="5" stroke-linecap="round"/>
<path d="M310.32 320.443C607.956 17.2178 1095.05 12.6871 1398.28 310.323" stroke="#8D8D8D" stroke-opacity="0.5" stroke-width="5" stroke-linecap="round"/>
<path d="M458.644 676.272C559.677 455.218 820.779 357.921 1041.83 458.953C1262.89 559.985 1360.18 821.088 1259.15 1042.14" stroke="#32353D" stroke-width="5" stroke-linecap="round"/>
<path d="M687.299 264.537C1015.61 169.917 1358.47 359.363 1453.09 687.677C1547.71 1015.99 1358.26 1358.85 1029.95 1453.47" stroke="#32353D" stroke-width="5" stroke-linecap="round"/>
<path d="M858.973 1549.56C1240.52 1549.62 1549.88 1240.37 1549.94 858.822" stroke="#32353D" stroke-width="5" stroke-linecap="round"/>
<path d="M858.731 1342.13C591.918 1342.09 375.66 1125.76 375.705 858.945C375.75 592.132 592.08 375.874 858.893 375.919" stroke="#32353D" stroke-width="5" stroke-linecap="round"/>
<path d="M1230.89 120.411C1633.25 323.211 1792.77 818.255 1587.19 1226.12C1381.62 1633.99 888.788 1800.23 486.432 1597.43" stroke="#383838" stroke-width="5" stroke-linecap="round"/>
<path d="M1394 733.688C1325.44 442.216 1030.35 262.265 734.884 331.757" stroke="#383838" stroke-width="5" stroke-linecap="round"/>
</g>
<defs>
<clipPath id="clip0_21_2298">
<rect width="1700" height="1718" rx="20" fill="white"/>
</clipPath>
</defs>
</svg>
