<svg viewBox="0 0 48 36" fill="none" xmlns="http://www.w3.org/2000/svg"><path d="M34.548 21.342h2.974c.085 0 .284-.028.369-.028.566-.113 1.048-.623 1.048-1.331 0-.68-.482-1.19-1.048-1.332-.085-.028-.255-.028-.369-.028h-2.974v2.72Z" fill="#fff"/><path d="M37.182 2.563a5.156 5.156 0 0 0-5.155 5.155v5.354h7.28c.17 0 .368 0 .51.028 1.642.085 2.86.935 2.86 2.408 0 1.16-.821 2.152-2.35 2.35v.057c1.67.113 2.945 1.048 2.945 2.493 0 1.557-1.416 2.577-3.285 2.577h-7.988v10.48h7.563a5.156 5.156 0 0 0 5.155-5.155V2.563h-7.535Z" fill="#fff"/><path d="M38.57 15.848c0-.68-.481-1.134-1.048-1.219-.056 0-.198-.028-.283-.028h-2.69v2.493h2.69c.085 0 .255 0 .283-.029.567-.085 1.049-.538 1.049-1.218ZM8.688 2.563a5.156 5.156 0 0 0-5.155 5.155v12.718c1.444.708 2.945 1.161 4.447 1.161 1.784 0 2.747-1.076 2.747-2.549v-6.005h4.419v5.977c0 2.322-1.445 4.22-6.345 4.22-2.974 0-5.297-.651-5.297-.651v10.848h7.563a5.156 5.156 0 0 0 5.155-5.155V2.563H8.688Zm14.247 0a5.156 5.156 0 0 0-5.155 5.155v6.741c1.303-1.104 3.57-1.812 7.223-1.642 1.954.085 4.05.623 4.05.623v2.18c-1.047-.537-2.294-1.019-3.908-1.132-2.776-.198-4.447 1.161-4.447 3.54 0 2.408 1.67 3.768 4.447 3.54 1.614-.112 2.86-.622 3.909-1.132v2.18s-2.068.54-4.051.624c-3.654.17-5.92-.538-7.223-1.643v11.897h7.563a5.156 5.156 0 0 0 5.155-5.155V2.563h-7.563Z" fill="#fff"/></svg>