<svg width="106" height="24" viewBox="0 0 106 24" fill="none" xmlns="http://www.w3.org/2000/svg">
<path d="M74.9816 16.8528C74.9816 17.8348 74.9642 18.8002 74.9991 19.7822C75.0165 20.1984 74.8595 20.3149 74.4408 20.2982C73.5511 20.2649 72.6614 20.2649 71.7543 20.2982C71.3705 20.3149 71.2659 20.1817 71.2833 19.8322C71.3007 17.9014 71.231 15.9706 71.3182 14.0398C71.4403 11.8427 72.3998 10.0451 74.6327 9.14627C76.8656 8.24746 79.0114 8.43055 80.9477 9.96186C81.192 10.145 81.2966 10.2115 81.5757 9.9785C83.39 8.49713 85.4485 8.24746 87.6291 9.02976C89.8097 9.81206 90.9262 11.4932 91.1704 13.6403C91.3972 15.7209 91.2402 17.8348 91.2576 19.9154C91.2576 20.1984 91.1355 20.2649 90.8738 20.2649C89.8969 20.2649 88.92 20.2649 87.9257 20.2816C87.4895 20.2982 87.5593 20.0153 87.5593 19.7822C87.5419 18.0013 87.5419 16.2203 87.5419 14.4226C87.5511 14.1553 87.5336 13.8878 87.4895 13.6237C87.3151 12.4919 86.6347 11.876 85.5183 11.8094C84.2622 11.7428 83.547 12.2255 83.2156 13.3907C83.0935 13.8755 83.0407 14.3738 83.0586 14.872C83.0586 16.4866 83.0586 18.1011 83.076 19.7323C83.0934 20.1817 82.9364 20.2982 82.4829 20.2816C81.6281 20.2483 80.7907 20.2483 79.9359 20.2816C79.4998 20.2982 79.3777 20.1651 79.3777 19.7489C79.3951 17.9846 79.3777 16.2203 79.3603 14.4559C79.36 14.104 79.325 13.7529 79.2556 13.4073C79.0288 12.3254 78.1914 11.7262 77.0401 11.7928C76.5123 11.8082 76.009 12.0085 75.6261 12.3554C75.2433 12.7023 75.0076 13.1716 74.9642 13.6736C74.9118 14.2063 74.8769 14.7555 74.8595 15.2882C74.842 15.8208 74.8595 16.3201 74.8595 16.8361C74.8992 16.8469 74.9403 16.8525 74.9816 16.8528ZM24.8277 6.46647C24.8277 7.24877 24.8452 8.04772 24.8103 8.83002C24.7929 9.34601 24.8801 9.42923 25.4034 9.1962C28.0725 7.98114 31.3347 8.69686 33.114 10.894C34.5968 12.7249 34.8236 14.8055 33.9165 16.8861C32.9047 19.1997 30.8811 20.2982 28.3342 20.498C24.3742 20.8142 21.2516 18.0678 21.2167 14.2895C21.1992 10.894 21.2167 7.4818 21.1992 4.08628C21.1992 3.62023 21.3213 3.47043 21.8098 3.48707C22.6297 3.52036 23.467 3.52036 24.287 3.50371C24.7231 3.48707 24.8452 3.63687 24.8277 4.03635C24.8103 4.85194 24.8452 5.66753 24.8277 6.46647ZM24.8277 14.5558C24.7929 16.187 26.0838 17.5352 27.7061 17.5518C28.5499 17.5697 29.3668 17.2681 29.9781 16.7129C30.5894 16.1577 30.9455 15.3941 30.9683 14.5891C31.0032 13.0911 29.5553 11.6596 27.9155 11.593C26.2233 11.5431 24.8626 12.8414 24.8277 14.5558Z" fill="white"/>
<path d="M16.5063 11.6762C16.5063 12.4088 16.3144 13.1297 15.9481 13.7734C14.2908 16.5365 12.6278 19.2884 10.9589 22.0292C10.6292 22.5737 10.1689 23.0358 9.61562 23.3774C8.53404 24.0266 7.41757 24.2763 6.24876 23.5938C5.2893 23.0279 4.80084 21.7463 5.04507 20.5146C5.25441 19.416 5.91731 18.5338 6.47555 17.6017C7.8188 15.3713 9.16787 13.1409 10.5227 10.9106C10.8877 10.3155 11.4036 9.81756 12.023 9.46247C13.0174 8.8799 14.064 8.71346 15.1282 9.26273C16.1749 9.77872 16.4714 10.7275 16.5063 11.6762ZM2.6596e-05 12.1589C-0.0170552 11.4506 0.184341 10.7532 0.579195 10.1532C2.20156 7.44014 3.84138 4.7104 5.48119 2.01396C5.9436 1.25486 6.64581 0.654774 7.48735 0.299557C8.46426 -0.11656 9.44117 -0.11656 10.3309 0.499294C11.2554 1.13179 11.4997 2.0639 11.4473 3.07922C11.4124 3.9281 11.0461 4.67711 10.5925 5.40948C9.03994 7.93948 7.52224 10.4695 6.00454 13.0161C5.60652 13.7121 5.00698 14.2842 4.2775 14.6639C2.09341 15.7708 2.6596e-05 14.589 2.6596e-05 12.1589Z" fill="#FFEA00"/>
<path d="M54.8847 16.986C54.8847 17.9181 54.8673 18.8502 54.8847 19.7823C54.9022 20.1651 54.78 20.2816 54.3614 20.2816C53.4717 20.265 52.582 20.2483 51.6749 20.2816C51.2387 20.2983 51.1864 20.1152 51.1864 19.7656C51.2039 18.0845 51.2039 16.4034 51.1864 14.7223C51.1973 14.2836 51.1385 13.8459 51.012 13.424C50.6282 12.2922 49.7908 11.7096 48.5522 11.7928C47.366 11.8594 46.5984 12.5585 46.3891 13.7403C46.0751 15.5212 46.2495 17.3022 46.2495 19.0832C46.2495 20.2483 46.2495 20.265 44.9935 20.265C44.3132 20.265 43.6503 20.2483 42.9699 20.265C42.7257 20.265 42.5512 20.2317 42.5512 19.9321C42.5512 17.7183 42.307 15.488 42.6908 13.2908C43.3014 9.89533 46.3891 8.01448 50.0874 8.7302C53.0356 9.29612 54.7975 11.3767 54.8673 14.3561C54.8847 15.2216 54.8673 16.1038 54.8673 16.9693C54.9022 16.986 54.9022 16.986 54.8847 16.986ZM99.5958 20.5812C96.0545 20.5313 93.3505 17.8182 93.4029 14.406C93.4552 11.1437 96.3336 8.54711 99.8574 8.59704C103.312 8.64697 106.05 11.41 105.998 14.7722C105.946 17.9847 103.032 20.6395 99.5958 20.5812ZM99.6656 17.5852C100.079 17.5905 100.489 17.5173 100.872 17.3698C101.256 17.2224 101.604 17.0037 101.898 16.7264C102.192 16.4491 102.425 16.1188 102.584 15.7548C102.743 15.3907 102.824 15.0001 102.823 14.6058C102.83 14.0086 102.651 13.4228 102.308 12.923C101.965 12.4233 101.475 12.0319 100.898 11.7988C100.322 11.5657 99.686 11.5012 99.0712 11.6137C98.4565 11.7261 97.8906 12.0104 97.4455 12.4304C97.0004 12.8504 96.6962 13.3871 96.5715 13.9724C96.4468 14.5577 96.5073 15.1651 96.7452 15.7176C96.9831 16.27 97.3878 16.7425 97.9078 17.0751C98.4277 17.4076 99.0396 17.5851 99.6656 17.5852ZM63.1187 20.5812C61.8758 20.5812 60.6609 20.2294 59.6278 19.5702C58.5947 18.9111 57.7897 17.9742 57.3149 16.8784C56.8401 15.7825 56.7168 14.5768 56.9605 13.414C57.2043 12.2512 57.8041 11.1835 58.6841 10.3462C59.5642 9.50885 60.6848 8.93948 61.9042 8.71015C63.1236 8.48083 64.3868 8.60187 65.5341 9.05795C66.6813 9.51403 67.6609 10.2846 68.3489 11.2722C69.0369 12.2598 69.4023 13.42 69.3988 14.6058C69.3942 16.1921 68.7305 17.7119 67.5532 18.8321C66.376 19.9522 64.7812 20.5812 63.1187 20.5812ZM66.2413 14.5725C66.243 13.9776 66.0596 13.3956 65.7143 12.9002C65.3689 12.4049 64.8772 12.0185 64.3015 11.7901C63.7258 11.5617 63.092 11.5015 62.4803 11.6171C61.8687 11.7328 61.3069 12.0191 60.866 12.4398C60.4251 12.8604 60.125 13.3965 60.0038 13.9801C59.8826 14.5637 59.9457 15.1684 60.1851 15.7177C60.4245 16.2671 60.8294 16.7362 61.3486 17.0657C61.8677 17.3952 62.4777 17.5702 63.1012 17.5685C63.5149 17.573 63.9253 17.4986 64.3084 17.3496C64.6915 17.2006 65.0395 16.9801 65.332 16.701C65.6245 16.4219 65.8556 16.0898 66.0118 15.7243C66.1679 15.3588 66.246 14.9672 66.2413 14.5725ZM40.0915 14.6224C40.0915 16.3368 40.0741 18.0679 40.109 19.7823C40.109 20.1984 39.9694 20.2983 39.5507 20.2983C38.661 20.265 37.7713 20.2816 36.8817 20.2983C36.5677 20.2983 36.463 20.1984 36.463 19.9154C36.463 16.3868 36.463 12.8747 36.4455 9.34605C36.4455 8.99651 36.5851 8.92993 36.9166 8.92993C37.8062 8.94658 38.6959 8.94658 39.5856 8.91329C40.0392 8.89665 40.1787 9.04645 40.1613 9.47921C40.1438 11.1936 40.1438 12.9247 40.1438 14.6391C40.137 14.6328 40.1287 14.628 40.1196 14.6251C40.1106 14.6223 40.101 14.6213 40.0915 14.6224ZM38.19 7.26546C37.0038 7.24882 36.0443 6.38329 36.0618 5.35132C36.0905 4.8191 36.3332 4.31795 36.7393 3.95212C37.1455 3.58629 37.6838 3.38397 38.2424 3.38725C39.4286 3.42054 40.4927 4.33599 40.4579 5.31803C40.4404 6.41658 39.4251 7.28211 38.19 7.26546Z" fill="white"/>
</svg>
