<svg viewBox="0 0 47 36" fill="none" xmlns="http://www.w3.org/2000/svg"><g clip-path="url(#a)"><path d="M23.4 3.064a14.362 14.362 0 0 0-5.5 11.316 14.362 14.362 0 0 0 5.5 11.315 14.362 14.362 0 0 0 5.5-11.316 14.362 14.362 0 0 0-5.5-11.315ZM32.3-.02c-2.95 0-5.69.886-7.972 2.406.117.096.235.19.348.288a15.513 15.513 0 0 1 5.338 11.705c0 4.488-1.946 8.754-5.338 11.705-.113.098-.231.193-.348.289a14.332 14.332 0 0 0 7.971 2.406c7.953 0 14.4-6.447 14.4-14.4S40.252-.02 32.3-.02ZM22.123 26.084c.112.098.23.193.348.289A14.334 14.334 0 0 1 14.5 28.78C6.547 28.78.1 22.332.1 14.38.1 6.427 6.547-.02 14.5-.02c2.948 0 5.689.886 7.972 2.406-.117.096-.235.19-.348.288a15.514 15.514 0 0 0-5.338 11.705c0 4.488 1.945 8.754 5.338 11.705Zm24.124-2.782v-.558h-.146l-.167.384-.169-.384h-.145v.558h.102v-.421l.158.363h.107l.157-.364v.422h.103Zm-.924 0v-.463h.187v-.095h-.476v.095h.187v.463h.102Zm.45 12.433v.094h.087c.02 0 .035-.004.047-.012a.041.041 0 0 0 .018-.036.039.039 0 0 0-.018-.035.084.084 0 0 0-.047-.011h-.087Zm.087-.067c.046 0 .08.01.106.03a.1.1 0 0 1 .036.083c0 .03-.01.053-.03.072a.139.139 0 0 1-.082.035l.115.134h-.09l-.107-.133h-.035v.133H45.7v-.354h.162Zm-.022.475a.293.293 0 0 0 .294-.296.295.295 0 0 0-.18-.273.301.301 0 0 0-.326.063.291.291 0 0 0-.085.21.295.295 0 0 0 .297.296Zm0-.677a.382.382 0 0 1 .273.112.375.375 0 0 1-.122.618.375.375 0 0 1-.151.03.387.387 0 0 1-.359-.233.363.363 0 0 1 0-.295.38.38 0 0 1 .359-.232Zm-35.67-1.357c0-.672.44-1.224 1.16-1.224.688 0 1.151.528 1.151 1.224s-.463 1.223-1.151 1.223c-.72 0-1.16-.552-1.16-1.223Zm3.095 0v-1.912h-.831v.464c-.264-.344-.664-.56-1.208-.56-1.072 0-1.912.84-1.912 2.008 0 1.167.84 2.007 1.912 2.007.544 0 .944-.216 1.208-.56v.464h.832v-1.91Zm28.093 0c0-.672.44-1.224 1.16-1.224.688 0 1.151.528 1.151 1.224s-.463 1.223-1.151 1.223c-.72 0-1.16-.552-1.16-1.223Zm3.096 0V30.66h-.833v2c-.264-.344-.663-.56-1.207-.56-1.072 0-1.912.84-1.912 2.008 0 1.167.84 2.007 1.912 2.007.544 0 .944-.216 1.208-.56v.464h.831V34.11Zm-20.87-1.264c.536 0 .88.336.968.928h-1.984c.088-.552.424-.928 1.016-.928Zm.016-.744c-1.12 0-1.903.816-1.903 2.008 0 1.215.815 2.007 1.96 2.007.575 0 1.103-.144 1.567-.536l-.408-.615c-.32.255-.728.4-1.112.4-.536 0-1.024-.249-1.144-.936h2.84c.008-.104.016-.208.016-.32-.008-1.192-.744-2.008-1.816-2.008Zm10.039 2.008c0-.672.44-1.224 1.16-1.224.688 0 1.152.528 1.152 1.224s-.464 1.223-1.152 1.223c-.72 0-1.16-.552-1.16-1.223Zm3.095 0v-1.912h-.831v.464c-.264-.344-.664-.56-1.208-.56-1.072 0-1.912.84-1.912 2.008 0 1.167.84 2.007 1.912 2.007.544 0 .944-.216 1.208-.56v.464h.831v-1.91Zm-7.79 0c0 1.16.807 2.007 2.04 2.007.575 0 .96-.128 1.375-.456l-.4-.672c-.312.224-.64.344-1 .344-.664-.008-1.151-.488-1.151-1.223 0-.736.487-1.216 1.151-1.224.36 0 .688.12 1 .344l.4-.672c-.416-.328-.8-.456-1.376-.456-1.232 0-2.04.848-2.04 2.008ZM39.66 32.1c-.48 0-.792.224-1.008.56v-.464h-.824v3.823h.832v-2.143c0-.632.272-.984.816-.984.168 0 .344.024.52.096l.256-.784a1.787 1.787 0 0 0-.592-.104Zm-22.285.4c-.4-.264-.952-.4-1.56-.4-.968 0-1.591.464-1.591 1.224 0 .624.463 1.008 1.32 1.128l.391.056c.456.063.672.184.672.4 0 .295-.304.463-.872.463-.575 0-.992-.184-1.272-.4l-.392.648c.457.336 1.033.496 1.657.496 1.103 0 1.743-.52 1.743-1.247 0-.672-.504-1.024-1.336-1.144l-.391-.056c-.36-.048-.648-.12-.648-.376 0-.28.271-.448.727-.448.488 0 .96.184 1.192.328l.36-.672Zm10.726-.4c-.48 0-.791.224-1.007.56v-.464h-.824v3.823h.832v-2.143c0-.632.272-.984.816-.984.168 0 .343.024.52.096l.256-.784a1.787 1.787 0 0 0-.593-.104Zm-7.094.096h-1.36v-1.16h-.84v1.16h-.776v.76h.776V34.7c0 .887.344 1.415 1.328 1.415.36 0 .776-.112 1.04-.296l-.24-.712c-.248.144-.52.216-.736.216-.416 0-.552-.256-.552-.64v-1.727h1.36v-.76ZM8.578 36.02v-2.4c0-.903-.577-1.511-1.504-1.519-.488-.008-.992.144-1.344.68-.264-.424-.68-.68-1.264-.68-.408 0-.808.12-1.12.568v-.472h-.832v3.823h.84V33.9c0-.663.368-1.015.936-1.015.552 0 .832.36.832 1.008v2.127h.84V33.9c0-.663.384-1.015.936-1.015.567 0 .84.36.84 1.008v2.127h.84Z" fill="#fff"/></g><defs><clipPath id="a"><path fill="#fff" d="M0 0h46.8v36H0z"/></clipPath></defs></svg>