<svg width="90" height="89" viewBox="0 0 90 89" fill="none" xmlns="http://www.w3.org/2000/svg">
<g filter="url(#filter0_f_21_2173)">
<path d="M17.2409 38.3565C18.3727 40.1486 20.0304 41.5516 22.0082 42.3912C30.5454 46.4584 51.2334 58.2025 59.7865 62.1993C62.1963 63.3232 64.9394 63.6537 67.6235 63.1434C70.7455 62.5604 73.1776 60.9412 74.3715 57.9329C75.6246 54.8253 74.6873 52.0993 72.8736 49.6576C71.3793 47.6015 69.2255 46.3435 66.882 45.2715C58.8221 41.5445 38.7692 30.0955 30.7685 26.2693C28.6236 25.1957 26.1826 24.7649 23.7369 25.0283C16.4642 25.8921 13.2119 32.3048 17.2409 38.3565Z" fill="#FFEA00"/>
<path d="M65.1642 23.8381C65.2173 25.9569 64.6169 28.0441 63.4377 29.8401C58.593 37.9614 47.9009 59.2122 43.004 67.2838C41.6231 69.5561 39.5246 71.3534 37.0086 72.4184C34.088 73.6661 31.1662 73.6689 28.5035 71.8289C25.7364 69.9393 25.0033 67.1514 25.1569 64.1137C25.2589 61.574 26.3525 59.3322 27.707 57.1399C32.3435 49.5665 42.6709 28.9136 47.203 21.2905C48.3914 19.2071 50.183 17.4941 52.3637 16.3559C58.8929 13.0383 65.1574 16.5679 65.1642 23.8381Z" fill="#FFEA00"/>
</g>
<defs>
<filter id="filter0_f_21_2173" x="-6" y="-11" width="102.338" height="110.383" filterUnits="userSpaceOnUse" color-interpolation-filters="sRGB">
<feFlood flood-opacity="0" result="BackgroundImageFix"/>
<feBlend mode="normal" in="SourceGraphic" in2="BackgroundImageFix" result="shape"/>
<feGaussianBlur stdDeviation="7.5" result="effect1_foregroundBlur_21_2173"/>
</filter>
</defs>
</svg>
