<svg width="841" height="487" viewBox="0 0 841 487" fill="none" xmlns="http://www.w3.org/2000/svg">
<g clip-path="url(#clip0_21_2180)">
<path d="M631.017 354.246C585.587 470.28 454.695 527.515 338.662 482.085" stroke="#383838" stroke-width="1.51453" stroke-linecap="round"/>
<path d="M234.084 327.142C203.638 224.025 262.55 115.75 365.667 85.3044" stroke="#383838" stroke-width="1.51453" stroke-linecap="round"/>
<path d="M597.938 374.231C541.478 472.023 416.431 505.529 318.638 449.069C220.846 392.608 187.34 267.562 243.8 169.769" stroke="#383838" stroke-width="1.51453" stroke-linecap="round"/>
<path d="M600.795 272C600.795 371.371 520.24 451.926 420.869 451.926C321.499 451.926 240.943 371.371 240.943 272" stroke="#383838" stroke-width="1.51453" stroke-linecap="round"/>
<path d="M630.204 392.86C696.953 277.247 657.341 129.414 541.729 62.6652C426.116 -4.08368 278.283 35.5281 211.534 151.141" stroke="#383838" stroke-width="1.51453" stroke-linecap="round"/>
<path d="M630.177 272C630.177 156.402 536.467 62.6917 420.869 62.6917" stroke="#32353D" stroke-width="1.51453" stroke-linecap="round"/>
<path d="M638.658 272C638.658 392.282 541.151 489.79 420.869 489.79C300.587 489.79 203.079 392.282 203.079 272" stroke="#383838" stroke-width="1.51453" stroke-linecap="round"/>
<path d="M615.71 403.651C543.001 511.259 396.826 539.55 289.218 466.841C181.61 394.132 153.319 247.957 226.028 140.349" stroke="#32353D" stroke-width="1.51453" stroke-linecap="round"/>
<circle cx="420.869" cy="272" r="254.744" stroke="#383838" stroke-width="1.51453" stroke-linecap="round"/>
<path d="M638.658 272C638.658 151.718 541.151 54.2104 420.869 54.2104C300.587 54.2104 203.079 151.718 203.079 272" stroke="#32353D" stroke-width="1.51453" stroke-linecap="round"/>
<path d="M420.869 443.445C326.183 443.445 249.424 366.686 249.424 272C249.424 177.313 326.183 100.555 420.869 100.555" stroke="#8D8D8D" stroke-opacity="0.5" stroke-width="1.51453" stroke-linecap="round"/>
<path d="M420.869 532.196C277.167 532.196 160.673 415.702 160.673 272C160.673 128.297 277.167 11.8035 420.869 11.8035" stroke="#32353D" stroke-width="1.51453" stroke-linecap="round"/>
<path d="M653.198 272C653.198 143.688 549.181 39.6709 420.869 39.6709C292.558 39.6709 188.54 143.688 188.54 272" stroke="#8D8D8D" stroke-opacity="0.5" stroke-width="1.51453" stroke-linecap="round"/>
<path d="M653.198 272C653.198 143.688 549.181 39.6709 420.869 39.6709C292.558 39.6709 188.54 143.688 188.54 272" stroke="#8D8D8D" stroke-opacity="0.5" stroke-width="1.51453" stroke-linecap="round"/>
<path d="M272.449 202.728C310.605 120.834 407.924 85.377 489.818 123.532C571.712 161.688 607.169 259.007 569.014 340.901" stroke="#383838" stroke-width="1.51453" stroke-linecap="round"/>
<path d="M495.097 433.44C405.868 474.462 300.279 435.383 259.257 346.154" stroke="#8D8D8D" stroke-opacity="0.5" stroke-width="1.51453" stroke-linecap="round"/>
<path d="M254.671 108.867C344.826 17.0187 492.37 15.6463 584.219 105.802" stroke="#8D8D8D" stroke-opacity="0.5" stroke-width="1.51453" stroke-linecap="round"/>
<path d="M368.86 91.9334C468.308 63.2723 572.161 120.657 600.823 220.105C629.484 319.553 572.099 423.406 472.651 452.068" stroke="#32353D" stroke-width="1.51453" stroke-linecap="round"/>
<path d="M420.861 481.175C536.434 481.194 630.14 387.519 630.16 271.946" stroke="#32353D" stroke-width="1.51453" stroke-linecap="round"/>
<path d="M533.518 48.2766C655.395 109.706 703.714 259.658 641.444 383.204C579.173 506.75 429.892 557.105 308.016 495.676" stroke="#383838" stroke-width="1.51453" stroke-linecap="round"/>
</g>
<defs>
<clipPath id="clip0_21_2180">
<rect x="0.738281" y="-29.0889" width="840.262" height="602.177" rx="6.05812" fill="white"/>
</clipPath>
</defs>
</svg>
