<svg width="1466" height="1042" viewBox="0 0 1466 1042" fill="none" xmlns="http://www.w3.org/2000/svg">
<g clip-path="url(#clip0_21_2225)">
<line x1="351.095" y1="565.257" x2="480.224" y2="456.905" stroke="#F5F5F5" stroke-width="34" stroke-linecap="round"/>
<line x1="665.233" y1="1028.07" x2="962.341" y2="778.767" stroke="#F5F5F5" stroke-width="20" stroke-linecap="round"/>
<line x1="622.356" y1="406.71" x2="760.677" y2="290.644" stroke="#F5F5F5" stroke-width="22" stroke-linecap="round"/>
<line x1="144.849" y1="585.069" x2="206.722" y2="533.151" stroke="#F5F5F5" stroke-width="30" stroke-linecap="round"/>
<line x1="55.5826" y1="480.534" x2="212.205" y2="349.113" stroke="#F5F5F5" stroke-width="19" stroke-linecap="round"/>
<line x1="1336.27" y1="1035.32" x2="1416.48" y2="968.015" stroke="#F5F5F5" stroke-width="10" stroke-linecap="round"/>
<line x1="385.616" y1="92.2409" x2="442.815" y2="44.2454" stroke="#F5F5F5" stroke-width="32" stroke-linecap="round"/>
<line x1="353.74" y1="1049.18" x2="512.142" y2="916.26" stroke="#F5F5F5" stroke-width="12" stroke-linecap="round"/>
<line x1="67.6023" y1="265.283" x2="140.162" y2="204.398" stroke="#F5F5F5" stroke-width="26" stroke-linecap="round"/>
<line x1="1018.34" y1="330.632" x2="1117.95" y2="247.049" stroke="#F5F5F5" stroke-width="26" stroke-linecap="round"/>
<line x1="15.6023" y1="994.422" x2="147.916" y2="883.398" stroke="#F5F5F5" stroke-width="26" stroke-linecap="round"/>
<line x1="1249.31" y1="455.29" x2="1494.33" y2="249.692" stroke="#F5F5F5" stroke-width="5" stroke-linecap="round"/>
<line x1="525.465" y1="599.818" x2="605.649" y2="532.535" stroke="#F5F5F5" stroke-width="40" stroke-linecap="round"/>
<line x1="411.748" y1="897.93" x2="572.539" y2="763.01" stroke="#F5F5F5" stroke-width="26" stroke-linecap="round"/>
<line x1="1299.14" y1="953.198" x2="1382.97" y2="882.857" stroke="#F5F5F5" stroke-width="51" stroke-linecap="round"/>
<line x1="1281.39" y1="658.272" x2="1347.72" y2="602.61" stroke="#F5F5F5" stroke-width="55" stroke-linecap="round"/>
<line x1="315.39" y1="859.374" x2="349.669" y2="830.61" stroke="#F5F5F5" stroke-width="55" stroke-linecap="round"/>
<line x1="567.157" y1="138.564" x2="695.534" y2="30.8429" stroke="#F5F5F5" stroke-width="35" stroke-linecap="round"/>
<line x1="712.65" y1="734.972" x2="800.39" y2="661.35" stroke="#F5F5F5" stroke-width="43" stroke-linecap="round"/>
<line x1="323.081" y1="337.736" x2="376.492" y2="292.919" stroke="#F5F5F5" stroke-width="50" stroke-linecap="round"/>
<line x1="709.87" y1="242.072" x2="806.561" y2="160.938" stroke="#F5F5F5" stroke-width="32" stroke-linecap="round"/>
<line x1="1004.22" y1="984.173" x2="1088.11" y2="913.781" stroke="#F5F5F5" stroke-width="36" stroke-linecap="round"/>
<line x1="959.157" y1="563.709" x2="1103.2" y2="442.843" stroke="#F5F5F5" stroke-width="35" stroke-linecap="round"/>
<line x1="1226.29" y1="196.969" x2="1385.11" y2="63.7057" stroke="#F5F5F5" stroke-width="21" stroke-linecap="round"/>
<line x1="861.438" y1="274.162" x2="1135.21" y2="44.4435" stroke="#F5F5F5" stroke-width="13" stroke-linecap="round"/>
<line x1="1149.49" y1="936.243" x2="1356.54" y2="762.507" stroke="#F5F5F5" stroke-width="8" stroke-linecap="round"/>
<line x1="-9.61662" y1="129.026" x2="83.1898" y2="51.1523" stroke="#F5F5F5" stroke-width="24" stroke-linecap="round"/>
</g>
<defs>
<clipPath id="clip0_21_2225">
<rect width="1466" height="1042" rx="20" fill="white"/>
</clipPath>
</defs>
</svg>
