<svg viewBox="0 0 59 36" fill="none" xmlns="http://www.w3.org/2000/svg"><g clip-path="url(#a)" fill="#fff"><path d="M43.727 14.01c-.442-.14-1.018.354-1.27 1.111-.264.757-.103 1.485.344 1.622.446.142 1.02-.355 1.273-1.111.26-.755.102-1.483-.347-1.622Zm-4.199-2.91c-.204-.135-.53-.198-.977-.198h-1.368l-.493 2.394h1.613c.42 0 .75-.098.997-.293.241-.194.401-.492.49-.897.014-.073.02-.142.034-.204.003-.059.013-.116.013-.173 0-.289-.102-.498-.309-.63Zm-1.743 14.508-.321 1.139h1.258l.322-1.14h-1.259Zm1.252-4.403-.43 1.5s.734-.283 1.368-.363c.14-.524.322-1.137.322-1.137h-1.26Zm-.627 2.205-.433 1.568s.816-.402 1.37-.436c.166-.604.325-1.132.325-1.132H38.41Zm-11.739-9.543c-.158-.172-.382-.258-.672-.258-.384 0-.695.135-.94.404-.247.271-.421.678-.532 1.22a4.823 4.823 0 0 0-.038.249 1.95 1.95 0 0 0-.01.233c0 .309.08.547.24.715.157.168.38.251.674.251.385 0 .697-.133.942-.4.245-.264.418-.665.525-1.197a2.595 2.595 0 0 0 .05-.496c0-.309-.08-.55-.239-.721Z"/><path d="M56.18-.014 42.284-.017h-.004l-.034.002c-1.91.058-4.287 1.589-4.72 3.477l-1.235 5.462h-1.145l1.235-5.462c.434-1.888 2.812-3.419 4.721-3.477l.033-.002H35.58L25.7-.022l-.074.003c-1.914.04-4.323 1.58-4.755 3.483l-1.236 5.461h-1.334l1.233-5.461C19.968 1.563 22.378.02 24.292-.02L11.54-.022c-1.926 0-4.393 1.558-4.834 3.486L.134 32.54c-.04.176-.063.35-.076.52v.539c.13 1.387 1.19 2.4 2.715 2.421h12.83c-1.895-.03-3.075-1.58-2.64-3.485l1.525-6.75h1.338l-1.526 6.75c-.434 1.907.746 3.456 2.639 3.485h15.519c-1.897-.03-3.073-1.58-2.64-3.485l.51-2.262h1.146l-.511 2.262c-.433 1.907.746 3.456 2.64 3.485H48.2c1.868-.093 3.68-1.605 4.106-3.472l6.571-29.076c.437-1.924-.774-3.487-2.698-3.486ZM12.32 17.058c-.694.513-1.592.77-2.69.77-1.035 0-1.792-.262-2.275-.79-.334-.373-.502-.85-.502-1.424 0-.238.027-.494.084-.768l1.17-5.643h1.768L8.719 14.78c-.036.157-.049.3-.047.43-.002.285.069.518.212.701.21.273.548.408 1.023.408.544 0 .99-.132 1.338-.401.348-.266.575-.643.676-1.136l1.159-5.578h1.757l-1.17 5.643c-.196.958-.648 1.69-1.348 2.211Zm7.062-2.824-.686 3.431h-1.284l.622-3.11c.064-.321.046-.561-.054-.715-.096-.155-.282-.231-.552-.231-.33 0-.607.102-.833.306-.227.206-.377.492-.45.856l-.574 2.893h-1.284l1.007-5.038h1.248l-.142.726.178-.207a1.95 1.95 0 0 1 1.477-.648c.526 0 .904.154 1.142.46.234.309.297.732.185 1.277Zm22.765-1.068c1.077-.5 1.637-.204 2.25.275l.583-.403 1.386-.123-1.045 4.749-1.596-.041-.235-.273c-4.042 1.724-2.813-3.503-1.343-4.184Zm2.858 7.598-.287.99H43.55c-.446.024-.672-.143-.695-.512l-.054-1.282h1.59l.066.584c-.011.15.08.22.268.22h.279ZM35.777 9.503h3.627c.695 0 1.232.16 1.606.47.37.313.555.764.555 1.351v.018c0 .111-.008.238-.02.374a4.45 4.45 0 0 1-.07.413c-.16.776-.53 1.4-1.103 1.875-.578.471-1.258.71-2.04.71h-1.945l-.6 2.95h-1.683l1.673-8.161Zm-6.169 3.125h1.25l-.142.726.175-.207a1.95 1.95 0 0 1 1.477-.648c.522 0 .902.153 1.14.46.23.307.297.731.185 1.275l-.685 3.431h-1.285l.622-3.11c.064-.321.049-.561-.05-.715-.103-.155-.285-.231-.552-.231-.33 0-.607.102-.836.306-.226.206-.377.492-.448.856l-.575 2.893h-1.282l1.006-5.036Zm-.398 7.994-.256.947h-2.396c-.275.414-.615.608-1.024.584h-1.249l.273-.989h.241c.224 0 .373-.073.443-.22l.626-.94h1.68l-.351.618h2.013Zm-7.823-2.96h-1.38l1.082-5.034h1.383l-1.085 5.034Zm1.271-5.646h-1.395l.26-1.224h1.397l-.262 1.224Zm.51 3.518a4.24 4.24 0 0 1 .055-.367c.167-.82.514-1.469 1.053-1.947.537-.481 1.186-.723 1.945-.723.623 0 1.116.175 1.477.523.36.349.541.822.541 1.42 0 .104-.008.223-.02.35-.019.13-.037.255-.06.377-.16.805-.507 1.447-1.047 1.917-.539.475-1.185.71-1.939.71-.623 0-1.114-.171-1.475-.512-.364-.348-.547-.813-.548-1.405 0-.104.006-.219.018-.343Zm4.058 12.786h-2.7c-.515 0-.69-.294-.53-.881l.513-1.87h-1.103l.279-1.032h1.105l.269-.989h-1.054l.277-1.026h4.413l-.281 1.026H26.64l-.27.992h1.726l-.28 1.028h-1.729l-.401 1.464c-.098.243.032.354.391.33h1.407l-.258.958Zm7.115-2.94c-.136.492-.495.747-1.076.773h-.767l-.003 1.064c-.014.166.14.254.459.254h.718l-.237.845H31.71c-.482.018-.722-.21-.715-.698l.108-2.859h1.44l-.029.622h.384c.194 0 .29-.064.29-.185l.114-.403h1.195l-.155.588Zm-.917-.882h-3.165l-.74 2.715c-.043.144.016.22.178.22h.623l-.23.844h-1.583c-.609 0-.86-.18-.76-.55l2.095-7.731h1.477l-.067.602s.834-.625 1.588-.625h2.793l-1.067 3.866c-.088.444-.468.66-1.142.659Zm6.765 3.347-.137.476H38.42l.137-.476H35.33l.311-1.1h.323l1.577-5.542h-.325l.333-1.173h1.687l-.073.432s.86-.432 1.483-.432h2.086l-.332 1.173h-.326l-1.576 5.542h.328l-.309 1.1h-.328Zm6.991-4.701h-1.635l-.282.988h1.635l-.307 1.061h-1.82l-.41.622h.885l.207 1.25c.025.124.134.183.322.183h.277l-.292 1.028h-.98c-.506.026-.767-.142-.79-.513l-.239-1.136-.809 1.213c-.19.343-.488.503-.883.476h-1.498l.296-1.028h.463c.191 0 .356-.086.498-.256l1.268-1.834h-1.639l.307-1.06h1.774l.284-.988h-1.777l.305-1.064h5.14l-.3 1.058Zm1.926-4.51c-.53 1.133-1.037 1.793-1.335 2.1-.3.304-.89 1.01-2.314.957l.124-.863c1.196-.367 1.844-2.028 2.214-2.766l-.44-5.421.922-.013h.775l.083 3.4 1.459-3.4h1.475l-2.963 6.007Z"/><path d="m30.742 22.739-.21.768h2.252c.184.027.288-.047.302-.22l.153-.548h-2.497Zm.458-1.65-.3 1.043s.415-.299 1.107-.31c.694-.01 1.484 0 1.484 0l.2-.733H31.2Z"/></g><defs><clipPath id="a"><path fill="#fff" transform="translate(.058)" d="M0 0h58.909v36H0z"/></clipPath></defs></svg>