<svg width="27" height="20" viewBox="0 0 27 20" fill="none" xmlns="http://www.w3.org/2000/svg">
<g clip-path="url(#clip0_21_2367)">
<path fill-rule="evenodd" clip-rule="evenodd" d="M0.5 0H37.55V1.53906H0.5V0ZM0.5 3.07812H37.55V4.61719H0.5V3.07812ZM0.5 6.15234H37.55V7.69531H0.5V6.15234ZM0.5 9.23047H37.55V10.7695H0.5V9.23047ZM0.5 12.3086H37.55V13.8477H0.5V12.3086ZM0.5 15.3828H37.55V16.9219H0.5V15.3828ZM0.5 18.4609H37.55V20H0.5V18.4609Z" fill="#BD3D44"/>
<path fill-rule="evenodd" clip-rule="evenodd" d="M0.5 1.53906H37.55V3.07812H0.5V1.53906ZM0.5 4.61719H37.55V6.15234H0.5V4.61719ZM0.5 7.69141H37.55V9.23047H0.5V7.69141ZM0.5 10.7695H37.55V12.3086H0.5V10.7695ZM0.5 13.8477H37.55V15.3867H0.5V13.8477ZM0.5 16.9219H37.55V18.4609H0.5V16.9219Z" fill="white"/>
<path fill-rule="evenodd" clip-rule="evenodd" d="M0.5 0H15.3192V10.7695H0.5V0Z" fill="#192F5D"/>
<path fill-rule="evenodd" clip-rule="evenodd" d="M1.73389 0.460938L1.871 0.886719H2.30518L1.95479 1.14844L2.08809 1.57812L1.73389 1.3125L1.3835 1.57422L1.5168 1.14844L1.1626 0.886719H1.60439L1.73389 0.460938ZM4.20566 0.460938L4.33896 0.886719H4.77695L4.42275 1.14844L4.55605 1.57812L4.20566 1.3125L3.85146 1.57422L3.98477 1.14844L3.63437 0.886719H4.06855L4.20566 0.460938ZM6.67363 0.460938L6.81074 0.886719H7.24111L6.89072 1.14844L7.02402 1.57812L6.66982 1.3125L6.31943 1.57422L6.45273 1.14844L6.09853 0.886719H6.53652L6.67363 0.460938ZM9.14541 0.460938L9.27871 0.886719H9.7167L9.3625 1.14844L9.49961 1.57812L9.14541 1.3125L8.79121 1.57422L8.92832 1.14844L8.57412 0.886719H9.0083L9.14541 0.460938ZM11.6134 0.460938L11.7505 0.886719H12.1847L11.8343 1.14844L11.9676 1.57812L11.6134 1.3125L11.263 1.57422L11.3963 1.14844L11.0459 0.886719H11.4801L11.6134 0.460938ZM14.0852 0.460938L14.2185 0.886719H14.6564L14.3022 1.14844L14.4394 1.57812L14.0852 1.3125L13.731 1.57422L13.8681 1.14844L13.5139 0.886719H13.9519L14.0852 0.460938ZM2.97168 1.53906L3.10498 1.96484H3.54297L3.18877 2.22656L3.31826 2.65234L2.97549 2.39062L2.62129 2.65234L2.74697 2.22656L2.4042 1.96484H2.83838L2.97168 1.53906ZM5.43965 1.53906L5.57676 1.96484H6.01094L5.65674 2.22656L5.79385 2.65234L5.43965 2.39062L5.08545 2.65234L5.22256 2.22656L4.86836 1.96484H5.30635L5.43965 1.53906ZM7.91143 1.53906L8.04473 1.96484H8.48271L8.12851 2.22656L8.26182 2.65234L7.91143 2.39062L7.55723 2.65234L7.69053 2.22656L7.34014 1.96484H7.77432L7.91143 1.53906ZM10.3794 1.53906L10.5165 1.96484H10.9507L10.5965 2.22656L10.7336 2.65234L10.3794 2.39062L10.029 2.65234L10.1623 2.22656L9.8081 1.96484H10.2499L10.3794 1.53906ZM12.8512 1.53906L12.9845 1.96484H13.4225L13.0683 2.22656L13.2016 2.65234L12.8512 2.39062L12.497 2.65234L12.6303 2.22656L12.2799 1.96484H12.7141L12.8512 1.53906ZM1.73389 2.61328L1.871 3.04687H2.30518L1.95479 3.30859L2.08809 3.73437L1.73389 3.46875L1.3835 3.73437L1.5168 3.30469L1.1626 3.04297H1.60439L1.73389 2.61328ZM4.20566 2.61328L4.33896 3.04297H4.77695L4.42275 3.30469L4.55605 3.73047L4.20566 3.46484L3.85146 3.73047L3.98477 3.30078L3.63437 3.03906H4.06855L4.20566 2.61328ZM6.67363 2.61328L6.81074 3.04297H7.24111L6.89072 3.30469L7.02402 3.73047L6.66982 3.46484L6.31943 3.73047L6.45273 3.30078L6.09853 3.03906H6.53652L6.67363 2.61328ZM9.14541 2.61328L9.27871 3.04297H9.7167L9.3625 3.30469L9.49961 3.73047L9.14541 3.46484L8.79121 3.73047L8.92832 3.30078L8.57412 3.03906H9.0083L9.14541 2.61328ZM11.6134 2.61328L11.7505 3.04297H12.1847L11.8343 3.30469L11.9676 3.73047L11.6134 3.46484L11.263 3.73047L11.3963 3.30078L11.0459 3.03906H11.4801L11.6134 2.61328ZM14.0852 2.61328L14.2185 3.04297H14.6564L14.3022 3.30469L14.4394 3.73047L14.0852 3.46484L13.731 3.73047L13.8681 3.30078L13.5139 3.03906H13.9519L14.0852 2.61328ZM2.97168 3.6914L3.10498 4.11719H3.54297L3.18877 4.3789L3.32207 4.80859L2.97168 4.54297L2.61748 4.80469L2.75078 4.3789L2.40039 4.11719H2.83457L2.97168 3.6914ZM5.43965 3.6914L5.57676 4.11719H6.01094L5.65674 4.3789L5.79385 4.80859L5.43965 4.54297L5.08545 4.80469L5.22256 4.3789L4.86836 4.11719H5.30635L5.43965 3.6914ZM7.91143 3.6914L8.04473 4.11719H8.48271L8.12851 4.3789L8.26182 4.80859L7.91143 4.54297L7.55723 4.80469L7.69053 4.3789L7.34014 4.11719H7.77432L7.91143 3.6914ZM10.3794 3.6914L10.5165 4.11719H10.9507L10.6003 4.3789L10.7336 4.80859L10.3794 4.54297L10.029 4.80469L10.1623 4.3789L9.8081 4.11719H10.2499L10.3794 3.6914ZM12.8512 3.6914L12.9845 4.11719H13.4225L13.0683 4.3789L13.2016 4.80859L12.8512 4.54297L12.497 4.80469L12.6303 4.3789L12.2799 4.11719H12.7141L12.8512 3.6914ZM1.73389 4.76953L1.871 5.19531H2.30518L1.95479 5.45703L2.08809 5.88672L1.73389 5.62109L1.3835 5.88281L1.5168 5.45703L1.1626 5.19531H1.60439L1.73389 4.76953ZM4.20566 4.76953L4.33896 5.19531H4.77695L4.42275 5.45703L4.55605 5.88281L4.20566 5.62109L3.85146 5.88281L3.98477 5.45703L3.63437 5.19531H4.06855L4.20566 4.76953ZM6.67363 4.76953L6.81074 5.19531H7.24111L6.89072 5.45703L7.02402 5.88672L6.66982 5.62109L6.31943 5.88281L6.45273 5.45703L6.09853 5.19531H6.53652L6.67363 4.76953ZM9.14541 4.76953L9.27871 5.19531H9.7167L9.3625 5.45703L9.49961 5.88672L9.14541 5.62109L8.79121 5.88281L8.92832 5.45703L8.57412 5.19531H9.0083L9.14541 4.76953ZM11.6134 4.76953L11.7505 5.19531H12.1847L11.8343 5.45703L11.9676 5.88672L11.6134 5.62109L11.263 5.88281L11.3963 5.45703L11.0459 5.19531H11.4801L11.6134 4.76953ZM14.0852 4.76953L14.2185 5.19531H14.6564L14.3022 5.45703L14.4394 5.88672L14.0852 5.62109L13.731 5.88281L13.8681 5.45703L13.5139 5.19531H13.9519L14.0852 4.76953ZM2.97168 5.84765L3.10498 6.27344H3.54297L3.18877 6.53515L3.32207 6.96093L2.97168 6.69531L2.61748 6.96093L2.75078 6.53125L2.40039 6.26953H2.83457L2.97168 5.84765ZM5.43965 5.84765L5.57676 6.27344H6.01094L5.65674 6.53515L5.79385 6.96093L5.43965 6.69531L5.08545 6.96093L5.22256 6.53125L4.86836 6.26953H5.30635L5.43965 5.84765ZM7.91143 5.84765L8.04473 6.27344H8.48271L8.12851 6.53515L8.26182 6.96093L7.91143 6.69531L7.55723 6.96093L7.69053 6.53125L7.34014 6.26953H7.77432L7.91143 5.84765ZM10.3794 5.84765L10.5165 6.27344H10.9507L10.6003 6.53515L10.7336 6.96093L10.3794 6.69531L10.029 6.96093L10.1623 6.53125L9.8081 6.26953H10.2499L10.3794 5.84765ZM12.8512 5.84765L12.9845 6.27344H13.4225L13.0683 6.53515L13.2016 6.96093L12.8512 6.69531L12.497 6.96093L12.6303 6.53125L12.2799 6.26953H12.7141L12.8512 5.84765ZM1.73389 6.92187L1.871 7.35156H2.30518L1.95479 7.61328L2.08809 8.03515L1.73389 7.77343L1.3835 8.03515L1.5168 7.60937L1.1626 7.34765H1.60439L1.73389 6.92187ZM4.20566 6.92187L4.33896 7.35156H4.77695L4.42275 7.61328L4.55986 8.03515L4.20566 7.77343L3.85146 8.03515L3.98857 7.60937L3.63437 7.34765H4.06855L4.20566 6.92187ZM6.67363 6.92187L6.81074 7.35156H7.24111L6.89072 7.61328L7.02402 8.03515L6.66982 7.77343L6.31943 8.03515L6.45273 7.60937L6.09853 7.34765H6.53652L6.67363 6.92187ZM9.14541 6.92187L9.27871 7.35156H9.7167L9.3625 7.61328L9.49961 8.03515L9.14541 7.77343L8.79121 8.03515L8.92832 7.60937L8.57412 7.34765H9.0083L9.14541 6.92187ZM11.6134 6.92187L11.7505 7.35156H12.1847L11.8343 7.61328L11.9676 8.03515L11.6134 7.77343L11.263 8.03515L11.3963 7.60937L11.0459 7.34765H11.4801L11.6134 6.92187ZM14.0852 6.92187L14.2185 7.35156H14.6564L14.3022 7.61328L14.4394 8.03515L14.0852 7.77343L13.731 8.03515L13.8681 7.60937L13.5139 7.34765H13.9519L14.0852 6.92187ZM2.97168 8L3.10498 8.42578H3.54297L3.18877 8.6875L3.32207 9.11718L2.97168 8.85156L2.61748 9.11328L2.75078 8.6875L2.40039 8.42578H2.83457L2.97168 8ZM5.43965 8L5.57676 8.42578H6.01094L5.65674 8.6875L5.79385 9.11718L5.43965 8.85156L5.08545 9.11328L5.22256 8.6875L4.86836 8.42578H5.30635L5.43965 8ZM7.91143 8L8.04473 8.42578H8.48271L8.12851 8.6875L8.26182 9.11718L7.91143 8.85156L7.55723 9.11328L7.69053 8.6875L7.34014 8.42578H7.77432L7.91143 8ZM10.3794 8L10.5165 8.42578H10.9507L10.6003 8.6875L10.7336 9.11718L10.3794 8.85156L10.029 9.11328L10.1623 8.6875L9.8081 8.42578H10.2499L10.3794 8ZM12.8512 8L12.9845 8.42578H13.4225L13.0683 8.6875L13.2016 9.11718L12.8512 8.85156L12.497 9.11328L12.6303 8.6875L12.2799 8.42578H12.7141L12.8512 8ZM1.73389 9.07812L1.871 9.5039H2.30518L1.95479 9.76562L2.08809 10.1914L1.73389 9.92968L1.3835 10.1914L1.5168 9.76171L1.1626 9.5H1.60439L1.73389 9.07812ZM4.20566 9.07812L4.33896 9.5039H4.77695L4.42275 9.76562L4.55986 10.1914L4.20566 9.92968L3.85146 10.1914L3.98857 9.76171L3.63437 9.5H4.06855L4.20566 9.07812ZM6.67363 9.07812L6.81074 9.5039H7.24111L6.89834 9.76562L7.03164 10.1914L6.67744 9.92968L6.32705 10.1914L6.46035 9.76171L6.10615 9.5H6.54414L6.67363 9.07812ZM9.14541 9.07812L9.27871 9.5039H9.7167L9.3625 9.76562L9.49961 10.1914L9.14541 9.92968L8.79121 10.1914L8.92832 9.76171L8.57412 9.5H9.0083L9.14541 9.07812ZM11.6134 9.07812L11.7505 9.5039H12.1847L11.8343 9.76562L11.9676 10.1914L11.6134 9.92968L11.263 10.1914L11.3963 9.76171L11.0459 9.5H11.4801L11.6134 9.07812ZM14.0852 9.07812L14.2185 9.5039H14.6564L14.3022 9.76562L14.4394 10.1914L14.0852 9.92968L13.731 10.1914L13.8681 9.76171L13.5139 9.5H13.9519L14.0852 9.07812Z" fill="white"/>
</g>
<defs>
<clipPath id="clip0_21_2367">
<rect x="0.5" width="26" height="20" rx="4" fill="white"/>
</clipPath>
</defs>
</svg>
