<svg viewBox="0 0 82 36" fill="none" xmlns="http://www.w3.org/2000/svg"><path d="M32.184 6.43 21.698 30.606H14.88L9.692 11.301c-.296-1.182-.593-1.612-1.519-2.113C6.617 8.364 4.06 7.612 1.8 7.146l.148-.716h11.005c1.408 0 2.668.895 3.002 2.471L18.66 22.87l6.743-16.44h6.781Zm26.79 16.26c.038-6.375-9.115-6.733-9.078-9.563.037-.86.89-1.79 2.742-2.005.927-.108 3.483-.215 6.373 1.074l1.15-5.122C58.603 6.537 56.602 6 54.12 6c-6.374 0-10.895 3.295-10.932 7.987-.037 3.474 3.224 5.408 5.67 6.59 2.52 1.182 3.372 1.934 3.372 3.009-.038 1.612-2.001 2.328-3.854 2.364-3.26.036-5.15-.86-6.633-1.54l-1.185 5.3c1.519.681 4.298 1.254 7.188 1.29 6.744-.036 11.19-3.295 11.227-8.31Zm16.86 7.88H81.8L76.575 6.394h-5.52c-1.224 0-2.298.716-2.743 1.755l-9.708 22.385h6.78l1.335-3.617h8.3l.815 3.653Zm-7.225-8.56 3.409-9.062 1.963 9.062H68.61ZM41.41 6.43l-5.336 24.14H29.59l5.373-24.14h6.448Z" fill="#fff"/></svg>